<?xml version="1.0" standalone="no"?>
<!DOCTYPE svg PUBLIC "-//W3C//DTD SVG 20010904//EN"
 "http://www.w3.org/TR/2001/REC-SVG-20010904/DTD/svg10.dtd">
<svg version="1.0" xmlns="http://www.w3.org/2000/svg"
 width="1200.000000pt" height="381.000000pt" viewBox="0 0 1200.000000 381.000000"
 preserveAspectRatio="xMidYMid meet">

<g transform="translate(0.000000,381.000000) scale(0.100000,-0.100000)"
fill="#000000" stroke="none">
<path d="M6206 3640 c-56 -155 -81 -270 -57 -270 6 0 11 -7 11 -15 0 -8 6 -15
14 -15 16 0 23 23 35 124 7 59 6 66 -6 50 -18 -25 -16 -12 13 91 47 165 53
189 50 192 -1 2 -29 -69 -60 -157z"/>
<path d="M6145 3310 c-3 -5 -1 -10 4 -10 6 0 11 5 11 10 0 6 -2 10 -4 10 -3 0
-8 -4 -11 -10z"/>
<path d="M6190 3255 c0 -4 16 -29 36 -56 21 -29 29 -46 20 -43 -23 9 -20 -10
6 -32 21 -19 21 -19 15 1 -5 14 0 11 19 -10 32 -38 47 -65 36 -65 -4 0 -8 -27
-8 -60 1 -33 4 -60 7 -60 4 0 10 -10 14 -22 6 -20 8 -20 12 -5 2 9 9 17 15 17
6 0 8 -10 4 -22 -3 -13 -6 -29 -6 -35 0 -22 -67 -89 -107 -107 -21 -10 -53
-38 -71 -62 -24 -34 -27 -42 -13 -34 11 5 25 18 30 28 9 16 10 16 16 0 9 -22
33 -24 41 -4 8 21 34 28 50 15 11 -9 14 -7 14 9 0 11 7 23 16 26 15 6 15 8 -1
26 -18 19 -17 20 5 20 15 0 20 5 17 14 -9 22 18 39 41 27 28 -15 37 0 10 17
-13 7 -15 11 -5 8 18 -6 24 9 7 19 -6 4 -4 16 6 31 16 23 16 24 -10 24 -16 0
-25 4 -21 10 4 6 -1 7 -12 3 -14 -5 -13 -1 6 20 14 16 20 31 15 39 -4 7 -31
49 -60 93 -28 44 -62 99 -74 123 -12 23 -26 42 -30 42 -5 0 -15 3 -24 6 -9 3
-16 3 -16 -1z m165 -275 c3 -5 -1 -10 -10 -10 -9 0 -13 5 -10 10 3 6 8 10 10
10 2 0 7 -4 10 -10z"/>
<path d="M4093 3189 c15 -9 17 -27 17 -154 0 -132 2 -145 19 -155 28 -14 33
-13 22 9 -6 10 -13 79 -16 152 -4 110 -8 136 -22 147 -9 6 -22 12 -27 12 -6 0
-3 -5 7 -11z"/>
<path d="M4162 3187 c-9 -10 -4 -12 24 -9 58 7 81 -33 62 -109 -10 -39 -19
-44 -75 -42 -7 1 -13 -4 -13 -9 0 -12 79 0 100 16 22 17 25 90 4 125 -23 40
-80 55 -102 28z"/>
<path d="M4424 3192 c-6 -4 -13 -15 -17 -25 -6 -17 -4 -16 19 2 36 28 60 26
94 -7 66 -67 58 -210 -14 -257 -30 -20 -67 -12 -105 24 -27 25 -29 32 -26 87
2 52 2 54 -5 19 -7 -32 -8 -26 -6 32 4 79 -5 87 -22 21 -24 -94 28 -188 113
-204 37 -7 117 28 113 49 -1 7 4 29 11 51 12 36 11 76 -4 136 -6 20 -5 22 5
10 10 -13 11 -13 7 0 -2 8 -8 15 -14 15 -6 0 -23 12 -38 28 -28 27 -85 37
-111 19z"/>
<path d="M4644 3188 c13 -8 16 -29 16 -137 0 -123 1 -129 23 -144 23 -15 23
-14 24 22 0 28 -1 31 -7 16 -6 -13 -9 6 -10 55 0 41 -2 100 -3 131 l-2 56 44
-2 c32 -1 49 -7 62 -24 38 -47 9 -111 -50 -111 -17 0 -32 -4 -35 -9 -3 -4 5
-6 17 -4 19 4 30 -6 61 -56 44 -73 72 -94 118 -89 l33 4 -30 8 c-48 12 -58 20
-92 72 -34 50 -48 97 -18 58 11 -14 14 -15 9 -3 -3 10 0 20 5 24 6 3 9 10 6
15 -3 5 -1 11 5 15 20 12 10 57 -19 85 -26 26 -34 29 -101 28 -49 -1 -67 -4
-56 -10z"/>
<path d="M4900 3150 c0 -27 4 -50 8 -50 4 0 9 23 10 50 1 28 -2 50 -8 50 -5 0
-10 -22 -10 -50z"/>
<path d="M4943 3193 c-7 -2 -13 -9 -13 -14 0 -6 8 -6 19 1 48 25 51 19 51
-124 0 -132 0 -134 25 -150 27 -18 35 -7 10 14 -12 10 -15 39 -15 141 l0 129
41 -4 c49 -5 59 -13 69 -58 l8 -33 1 30 c0 17 -3 37 -9 45 -6 9 -5 17 2 21 12
7 -170 10 -189 2z"/>
<path d="M5337 3185 c14 -11 11 -18 -27 -68 -23 -32 -49 -57 -56 -57 -8 0 -14
-4 -14 -10 0 -5 4 -10 9 -10 5 0 30 -30 56 -66 35 -51 43 -69 33 -75 -8 -5 5
-9 35 -9 30 0 46 4 42 10 -3 6 -14 10 -24 10 -10 0 -37 30 -68 75 -52 76 -56
89 -19 58 21 -18 21 -18 3 4 -18 21 -18 22 23 75 23 29 51 58 62 64 17 9 12
11 -26 11 -37 0 -42 -2 -29 -12z"/>
<path d="M5478 3184 c21 -14 22 -22 22 -139 0 -117 -1 -125 -22 -139 -21 -15
-14 -16 96 -16 93 0 116 3 108 13 -5 7 -6 21 -1 32 11 28 11 45 -1 45 -5 0
-10 -11 -10 -24 0 -46 -79 -73 -131 -46 -17 10 -19 22 -19 137 0 108 -2 128
-17 139 -10 7 -25 14 -33 14 -9 0 -7 -5 8 -16z"/>
<path d="M5528 3193 c6 -3 10 -9 6 -14 -3 -5 -1 -9 5 -9 5 0 13 5 16 10 18 30
105 -4 105 -41 0 -10 4 -19 9 -19 5 0 8 18 7 40 0 23 -2 36 -4 31 -3 -8 -10
-8 -23 -1 -10 6 -45 10 -76 9 -32 -1 -52 -4 -45 -6z"/>
<path d="M5721 3187 c9 -7 37 -54 63 -104 37 -75 46 -103 46 -145 0 -42 4 -56
20 -66 11 -7 20 -8 20 -3 0 6 -4 13 -10 16 -5 3 -10 31 -10 61 0 87 -91 255
-137 254 -4 0 -1 -6 8 -13z"/>
<path d="M5785 3189 c-4 -6 -4 -13 -1 -16 3 -4 6 -1 6 5 0 6 8 13 18 15 15 4
15 5 0 6 -9 0 -20 -4 -23 -10z"/>
<path d="M5898 3190 c29 -12 28 -29 -8 -100 -17 -33 -27 -60 -22 -60 4 0 23
31 42 69 28 59 31 72 20 85 -7 9 -22 16 -34 15 -21 0 -21 0 2 -9z"/>
<path d="M6200 3190 c-12 -8 -12 -10 3 -16 21 -8 35 2 21 16 -5 5 -15 6 -24 0z"/>
<path d="M6779 3159 c-24 -26 -39 -36 -42 -27 -5 16 -27 -58 -27 -94 0 -107
105 -187 189 -143 25 13 36 14 47 4 12 -10 14 -3 14 43 0 30 5 59 12 66 9 9 8
12 -5 12 -12 0 -17 -9 -18 -32 -1 -23 -3 -26 -6 -11 -5 25 -18 38 -50 47 -14
5 -23 3 -23 -3 0 -6 9 -11 21 -11 18 0 20 -5 17 -52 l-3 -53 -47 -3 c-39 -3
-51 1 -77 25 -28 26 -57 94 -34 80 6 -4 10 14 11 43 2 82 45 140 105 140 33 0
77 -40 77 -69 0 -11 5 -23 10 -26 11 -7 13 9 4 40 -8 29 -65 65 -104 65 -26 0
-41 -9 -71 -41z"/>
<path d="M7110 3194 c0 -5 5 -15 11 -21 8 -8 0 -40 -31 -120 -23 -59 -45 -114
-47 -120 -3 -7 -1 -13 4 -13 6 0 17 18 26 40 15 39 16 40 65 40 l50 0 16 -47
c19 -56 20 -51 -1 -56 -10 -3 7 -5 37 -5 53 -1 54 -1 28 13 -21 12 -36 41 -73
137 -41 106 -85 185 -85 152z m52 -123 l16 -49 -40 -4 c-21 -2 -41 -2 -42 0
-5 5 37 102 44 102 3 0 13 -22 22 -49z"/>
<path d="M7320 3190 c0 -5 6 -9 13 -7 9 1 13 -31 15 -130 2 -83 6 -133 13
-133 7 0 9 37 7 105 -2 58 0 105 3 105 4 0 26 -52 51 -116 24 -63 48 -116 52
-117 5 -1 27 51 50 115 23 64 45 120 49 124 4 4 7 -42 7 -102 0 -104 7 -134
32 -134 4 0 7 44 6 98 l-2 97 -6 -80 c-6 -79 -6 -79 -8 38 -1 65 2 116 7 113
4 -3 17 4 27 15 18 20 17 20 -27 -2 -45 -23 -47 -27 -81 -124 -20 -55 -41
-100 -48 -100 -7 0 -19 18 -28 40 -56 147 -74 183 -98 194 -31 14 -34 14 -34
1z"/>
<path d="M7700 3190 c0 -5 7 -10 14 -10 12 0 15 -25 18 -135 3 -126 2 -135
-17 -144 -14 -7 12 -10 93 -10 l112 -1 -2 48 c-1 41 -2 43 -5 11 -5 -41 -18
-49 -89 -49 -35 0 -100 29 -66 30 14 0 17 56 2 65 -20 12 -9 34 20 40 34 8 64
-10 56 -32 -3 -7 -1 -13 4 -13 6 0 9 26 9 58 -1 31 -4 45 -6 30 -4 -26 -8 -28
-47 -28 l-43 0 -2 62 c-1 45 -6 65 -19 74 -21 16 -32 17 -32 4z"/>
<path d="M7774 3185 c-10 -8 -14 -14 -9 -14 6 0 19 6 29 14 11 8 15 15 10 15
-6 0 -19 -7 -30 -15z"/>
<path d="M7855 3186 c16 -8 35 -27 42 -42 l12 -29 1 26 c0 31 -14 45 -55 53
l-30 6 30 -14z"/>
<path d="M8010 3170 c-32 -31 -38 -66 -17 -92 6 -8 38 -34 70 -57 39 -29 57
-48 57 -63 0 -17 3 -19 11 -11 21 21 -9 66 -71 108 -32 21 -61 47 -63 56 -5
20 45 79 66 79 23 0 67 -40 67 -61 0 -10 5 -19 10 -19 6 0 10 14 10 32 0 17
-3 28 -6 25 -4 -3 -18 3 -32 13 -35 28 -66 25 -102 -10z"/>
<path d="M5200 3058 c0 -130 -1 -138 -22 -152 -21 -15 -20 -16 37 -15 52 0 56
2 33 11 l-28 10 0 126 c0 70 -5 134 -10 142 -7 10 -10 -30 -10 -122z"/>
<path d="M5533 3125 c0 -22 2 -30 4 -17 2 12 2 30 0 40 -3 9 -5 -1 -4 -23z"/>
<path d="M6380 3151 c0 -6 6 -11 13 -11 6 0 41 -43 76 -95 36 -52 67 -93 69
-90 8 7 -111 177 -135 193 -15 9 -23 10 -23 3z"/>
<path d="M5597 3085 c-3 -16 0 -24 7 -22 14 4 21 47 8 47 -5 0 -12 -11 -15
-25z"/>
<path d="M4603 3045 c0 -22 2 -30 4 -17 2 12 2 30 0 40 -3 9 -5 -1 -4 -23z"/>
<path d="M5836 3057 c3 -10 9 -15 12 -12 3 3 0 11 -7 18 -10 9 -11 8 -5 -6z"/>
<path d="M5565 3041 c21 -4 31 -13 33 -29 2 -12 8 -22 13 -22 11 0 11 3 -1 34
-8 21 -16 26 -42 25 l-33 -1 30 -7z"/>
<path d="M5861 3004 c0 -11 3 -14 6 -6 3 7 2 16 -1 19 -3 4 -6 -2 -5 -13z"/>
<path d="M4825 2981 c8 -17 19 -33 25 -36 5 -3 1 10 -11 29 -25 43 -36 48 -14
7z"/>
<path d="M5330 3003 c0 -6 8 -17 18 -24 16 -13 16 -13 2 6 -8 11 -16 22 -17
24 -2 2 -3 0 -3 -6z"/>
<path d="M7979 2939 c2 -29 6 -47 10 -40 6 9 15 8 37 -4 36 -19 57 -19 93 0
31 15 41 34 41 68 -1 19 -3 17 -14 -8 -7 -17 -21 -36 -30 -44 -42 -35 -125 0
-126 52 0 15 -3 27 -7 27 -5 0 -6 -23 -4 -51z"/>
<path d="M6514 2934 c10 -33 23 -155 20 -181 -1 -14 3 -23 11 -23 18 0 25 -23
25 -81 0 -34 -4 -48 -11 -43 -7 4 -9 0 -5 -14 10 -29 -101 -189 -195 -282
l-76 -76 30 -2 c17 -2 36 -7 43 -13 9 -8 11 -5 7 13 -5 21 -4 21 8 6 21 -24
76 -12 97 21 9 14 22 32 29 39 7 7 16 24 19 38 4 14 11 21 18 17 6 -3 8 -3 4
2 -4 4 0 21 8 38 15 27 15 29 0 24 -8 -3 -18 -2 -21 3 -4 6 2 10 12 10 13 0
14 3 5 8 -9 7 -3 25 25 76 37 65 39 67 72 62 27 -4 32 -3 22 7 -7 7 -16 13
-21 13 -6 1 -15 2 -21 3 -7 1 -9 10 -5 24 13 40 12 62 -3 77 -13 13 -12 15 2
18 9 2 17 10 17 18 0 8 -4 12 -10 9 -5 -3 -15 -3 -22 1 -7 5 -5 11 7 21 17 12
17 13 2 13 -9 0 -17 5 -17 11 0 5 4 8 9 5 5 -4 7 4 4 15 -4 12 -14 24 -24 26
-10 3 -20 17 -24 32 -3 14 -15 40 -26 56 -15 22 -19 24 -15 9z m63 -136 c-3
-8 -6 -5 -6 6 -1 11 2 17 5 13 3 -3 4 -12 1 -19z"/>
<path d="M7020 2900 c-11 -7 -1 -9 35 -9 40 1 45 3 25 9 -35 11 -43 11 -60 0z"/>
<path d="M7335 2900 c-15 -6 -9 -9 25 -9 34 0 40 3 25 9 -11 5 -22 9 -25 9 -3
0 -14 -4 -25 -9z"/>
<path d="M6130 2838 c0 -22 26 -58 37 -50 2 1 11 -4 19 -13 14 -13 14 -15 -2
-15 -13 0 -14 -3 -4 -15 11 -13 16 -12 36 12 29 33 29 39 7 47 -12 5 -14 9 -6
14 8 5 9 13 3 22 -8 13 -10 12 -10 -2 0 -10 -5 -18 -11 -18 -6 0 -9 7 -5 15 4
11 -2 15 -20 15 -17 0 -23 -4 -19 -12 4 -7 -1 -4 -9 6 -16 19 -16 19 -16 -6z
m80 -44 c0 -8 -4 -12 -10 -9 -5 3 -10 10 -10 16 0 5 5 9 10 9 6 0 10 -7 10
-16z"/>
<path d="M6367 2773 c-4 -3 -7 -13 -7 -22 1 -13 3 -13 11 2 11 19 8 33 -4 20z"/>
<path d="M6127 2723 c-6 -10 19 -34 26 -26 8 7 -3 33 -13 33 -5 0 -11 -3 -13
-7z"/>
<path d="M6635 2674 c-1 -21 4 -34 12 -34 7 0 13 -5 13 -12 0 -6 3 -9 6 -5 7
6 -14 74 -24 81 -4 2 -7 -11 -7 -30z"/>
<path d="M6540 2660 c-9 -6 -10 -10 -3 -10 6 0 15 5 18 10 8 12 4 12 -15 0z"/>
<path d="M1446 2631 c18 -11 35 -24 39 -30 3 -6 10 -9 15 -6 4 3 9 -126 9
-287 2 -319 9 -377 59 -516 27 -73 132 -264 152 -277 4 -2 -1 21 -12 53 -10
31 -25 86 -34 122 -8 36 -17 74 -20 85 -4 18 -4 18 8 4 11 -13 16 -14 25 -3
10 10 10 14 0 17 -7 3 -7 6 -2 6 11 1 12 102 1 120 -4 6 -2 11 5 11 10 0 10 3
1 12 -18 18 -15 28 6 21 15 -6 15 -4 -2 15 -11 12 -14 22 -8 22 7 0 12 11 12
25 0 14 -5 25 -11 25 -8 0 -8 5 1 15 7 8 8 15 3 15 -10 0 -10 1 -18 147 -3 61
-1 114 4 117 4 3 6 27 4 54 -2 35 1 53 11 61 14 11 13 16 -1 37 -14 23 -14 24
5 24 20 0 39 16 30 25 -2 3 -22 7 -44 11 -21 3 -42 8 -46 10 -17 10 -20 -61
-16 -364 2 -250 0 -319 -9 -319 -7 0 -11 3 -8 5 3 3 -1 12 -8 20 -10 13 -9 14
3 7 10 -5 9 -1 -3 13 -11 11 -16 26 -12 31 3 6 2 11 -2 11 -5 0 -9 16 -10 35
-1 19 3 35 7 35 4 0 11 7 14 16 4 10 2 13 -6 8 -8 -5 -9 -2 -5 9 3 9 1 19 -4
23 -6 3 -9 15 -6 25 3 11 2 19 -2 19 -3 0 -7 39 -8 88 -3 105 -7 150 -17 180
-5 14 -3 22 5 22 8 0 8 4 -2 16 -31 37 -19 84 22 87 25 1 59 31 59 52 0 7 -11
20 -24 29 l-25 16 14 -27 c18 -35 12 -40 -22 -17 -31 21 -130 64 -147 64 -6 0
3 -9 20 -19z"/>
<path d="M1765 2636 c-19 -8 -25 -15 -17 -20 6 -4 23 1 37 10 41 27 31 32 -20
10z"/>
<path d="M6545 2630 c3 -5 8 -10 11 -10 2 0 4 5 4 10 0 6 -5 10 -11 10 -5 0
-7 -4 -4 -10z"/>
<path d="M1656 2595 c-11 -8 -18 -17 -15 -19 2 -3 15 4 29 14 14 11 21 20 15
19 -5 0 -19 -6 -29 -14z"/>
<path d="M6517 2593 c-3 -5 -1 -17 4 -28 7 -17 8 -17 8 8 1 27 -4 34 -12 20z"/>
<path d="M9910 2549 c0 -4 12 -9 28 -11 15 -2 26 -8 25 -15 -2 -7 4 -10 12 -7
8 4 12 10 9 15 -3 5 -1 9 5 9 5 0 11 -4 13 -8 2 -4 14 -2 28 5 l25 13 -25 1
c-14 0 -46 2 -72 4 -27 1 -48 -1 -48 -6z"/>
<path d="M10101 2542 c-11 -21 -10 -22 29 -20 33 1 38 4 28 15 -8 10 -13 11
-18 2 -5 -8 -11 -6 -18 6 -9 17 -10 17 -21 -3z"/>
<path d="M9684 2542 c-7 -4 -14 -66 -17 -157 -7 -161 -5 -164 37 -39 9 28 23
60 32 70 13 18 14 16 8 -18 -5 -31 -3 -38 10 -38 10 0 13 5 9 16 -4 12 -2 15
8 12 8 -3 37 6 64 19 43 19 66 23 161 23 88 0 118 4 149 19 37 18 65 18 65 2
0 -4 -21 -12 -47 -17 -47 -9 -48 -10 -51 -50 -2 -22 2 -53 8 -69 l11 -28 24
23 c13 13 22 28 18 34 -3 6 -3 8 2 4 4 -4 14 -3 22 3 10 9 13 7 13 -6 0 -10
-3 -16 -6 -13 -4 5 -54 -37 -54 -45 0 -2 9 -3 20 -3 12 0 19 6 17 16 -1 8 4
15 11 15 6 0 12 -3 12 -7 0 -5 0 -15 0 -23 0 -8 -7 -15 -15 -15 -8 0 -15 -5
-15 -11 0 -6 6 -9 14 -6 20 8 21 -26 19 -702 -2 -565 -3 -595 -20 -613 -17
-16 -23 -17 -53 -7 -28 10 -35 10 -39 -2 -2 -8 -20 -29 -40 -47 l-35 -32 285
2 c197 1 256 3 191 8 -50 4 -95 10 -99 13 -3 4 2 7 13 7 13 0 8 6 -15 18 -19
9 -44 30 -55 45 -21 28 -21 39 -24 710 -3 503 -7 684 -15 689 -9 6 -9 8 1 8 7
0 12 15 12 41 l0 41 128 -4 c173 -5 206 -21 320 -153 33 -38 42 -44 36 -25 -4
14 -6 55 -5 91 2 51 -2 70 -16 85 -10 11 -14 14 -9 7 6 -9 3 -13 -8 -13 -19 0
-21 -19 -3 -26 8 -3 14 -19 14 -35 0 -35 -5 -29 -44 54 -24 52 -21 58 30 61
18 1 23 8 25 41 l3 40 -44 -43 -45 -44 -58 13 c-33 6 -122 15 -199 19 -77 4
-130 8 -118 8 12 1 25 7 28 12 4 7 -2 9 -18 5 -14 -4 -35 -2 -46 5 -17 8 -21
8 -19 -2 2 -7 9 -16 17 -19 9 -3 2 -13 -24 -28 -23 -13 -44 -19 -54 -15 -9 5
-20 9 -26 9 -5 1 -19 6 -30 11 -11 5 -93 9 -182 8 -89 -1 -160 3 -157 7 3 5
11 9 18 9 7 0 21 10 32 22 l19 22 -25 -17 c-13 -9 -32 -17 -42 -17 -10 0 -18
-4 -18 -10 0 -5 -7 -10 -15 -10 -8 0 -15 -7 -15 -15 0 -24 -13 -18 -51 22 -19
20 -27 33 -17 30 10 -3 20 -2 23 3 7 12 -25 13 -41 2z m511 -162 c-3 -5 -11
-10 -16 -10 -6 0 -7 5 -4 10 3 6 11 10 16 10 6 0 7 -4 4 -10z m-45 -1475 c0
-8 -71 -38 -76 -32 -3 3 7 12 23 20 28 15 53 21 53 12z m225 -15 c13 -6 15 -9
5 -9 -8 0 -22 4 -30 9 -18 12 -2 12 25 0z"/>
<path d="M9758 2543 c7 -3 16 -2 19 1 4 3 -2 6 -13 5 -11 0 -14 -3 -6 -6z"/>
<path d="M10370 2520 c0 -5 5 -10 11 -10 5 0 7 5 4 10 -3 6 -8 10 -11 10 -2 0
-4 -4 -4 -10z"/>
<path d="M10646 2521 c-4 -5 3 -7 14 -4 23 6 26 13 6 13 -8 0 -17 -4 -20 -9z"/>
<path d="M9870 2510 c0 -5 4 -10 9 -10 6 0 13 5 16 10 3 6 -1 10 -9 10 -9 0
-16 -4 -16 -10z"/>
<path d="M10687 2506 c-4 -10 -1 -13 9 -9 15 6 19 23 5 23 -5 0 -11 -7 -14
-14z"/>
<path d="M7666 2447 c-57 -95 -77 -139 -72 -153 3 -8 2 -13 -3 -10 -14 9 -87
-61 -101 -96 -30 -80 -55 -149 -146 -408 -168 -480 -191 -544 -208 -580 -9
-21 -14 -26 -12 -12 4 24 -16 30 -44 12 -12 -8 -11 -10 8 -10 26 0 28 -7 7
-30 -13 -14 -13 -17 0 -17 8 0 12 4 9 9 -3 4 0 8 5 8 14 0 14 3 -5 -56 -19
-55 -34 -79 -27 -40 4 19 1 26 -11 26 -9 0 -16 -7 -16 -15 0 -8 -9 -23 -20
-32 -11 -10 -20 -23 -20 -29 0 -6 -9 -23 -20 -36 -10 -14 -17 -28 -13 -31 3
-3 -2 -13 -11 -22 -9 -9 -16 -23 -16 -31 0 -8 -15 -21 -32 -29 -30 -13 -20
-14 122 -14 118 0 150 2 135 11 -11 6 -25 17 -32 26 -9 11 -16 12 -26 4 -10
-9 -20 -5 -42 16 -29 26 -29 27 -7 30 13 2 20 8 16 14 -4 6 -2 8 4 5 5 -4 8
-16 5 -27 -4 -15 0 -20 16 -20 13 0 21 6 21 18 0 9 27 97 61 195 l62 177 300
-2 301 -3 62 -170 c35 -93 63 -178 63 -187 1 -21 39 -34 54 -19 20 20 31 12
12 -9 -12 -13 -26 -18 -44 -15 -14 3 -20 2 -13 -1 20 -9 14 -27 -8 -21 -10 3
-27 -1 -37 -9 -15 -11 9 -13 166 -14 128 0 182 3 175 10 -6 6 -24 13 -40 16
-16 3 -58 22 -92 42 l-64 37 -28 88 -28 88 24 -26 c13 -14 24 -30 24 -35 0 -5
8 -7 18 -3 14 5 13 3 -3 -10 -17 -14 -18 -16 -3 -17 10 0 19 -11 23 -29 3 -16
17 -39 30 -51 14 -13 22 -26 20 -30 -3 -5 2 -10 10 -14 8 -3 15 -1 15 4 0 6 5
10 11 10 6 0 8 -7 5 -16 -4 -10 -2 -13 6 -8 6 4 8 3 5 -3 -4 -6 2 -13 13 -16
20 -5 20 -5 1 21 -29 41 -31 47 -193 497 -28 77 -56 154 -63 170 -7 17 -16 41
-20 54 -5 16 -10 20 -15 11 -5 -8 -9 -7 -14 6 -6 15 -9 16 -16 4 -5 -8 -12
-12 -15 -8 -4 3 3 16 16 29 20 20 22 20 15 3 -6 -15 -5 -16 5 -7 17 17 -6 44
-29 36 -9 -3 -14 -3 -10 2 4 4 1 14 -7 22 -21 21 -18 33 8 33 21 1 21 1 3 15
-10 8 -22 12 -27 10 -4 -3 -5 4 -2 14 4 17 -35 83 -60 102 -5 3 -8 8 -6 10 1
2 -8 23 -20 47 -12 23 -19 47 -16 52 3 6 -1 10 -9 10 -8 0 -15 8 -15 18 1 40
-9 73 -27 94 -10 12 -13 18 -6 14 18 -11 15 19 -4 38 -8 9 -11 16 -5 16 6 0 8
6 6 13 -11 29 -11 87 -1 90 7 3 7 9 -3 20 -11 14 -16 15 -29 5 -13 -12 -14
-10 -1 9 10 16 16 19 22 10 5 -7 5 3 1 23 -3 19 -10 40 -15 46 -5 6 -4 15 2
21 6 6 9 18 7 27 -2 11 -9 7 -22 -17z m-46 -202 c0 -8 -14 -29 -31 -47 l-31
-33 19 35 c31 60 43 73 43 45z m53 -107 c77 -219 80 -230 66 -239 -8 -5 -18
-9 -24 -9 -5 0 -3 5 5 10 12 8 12 10 1 10 -8 0 -11 7 -8 20 3 13 0 20 -8 20
-8 0 -25 11 -39 25 l-25 25 24 0 c18 0 25 -5 25 -20 0 -11 5 -20 10 -20 13 0
13 4 -4 45 -8 18 -12 36 -8 39 3 3 -5 6 -17 6 -12 0 -19 4 -16 10 3 6 0 10 -9
10 -8 0 -16 -6 -19 -12 -2 -8 -11 0 -20 17 -27 49 -19 11 20 -105 21 -62 41
-106 46 -103 6 4 8 -1 4 -10 -3 -9 -3 -16 1 -16 4 1 9 0 12 -1 13 -7 60 -5 60
2 0 4 -7 8 -15 8 -21 0 -19 13 4 27 18 11 22 6 49 -70 16 -45 33 -93 37 -107
3 -14 12 -38 20 -55 23 -54 27 -75 14 -75 -8 0 -7 -4 4 -12 20 -16 32 -64 18
-72 -6 -4 -9 -1 -5 7 3 10 -6 21 -27 31 -38 19 -42 20 -34 6 4 -6 3 -10 -2 -9
-28 5 -32 -2 -21 -33 16 -48 19 -49 66 -28 l43 19 9 -25 c20 -52 9 -64 -74
-79 -35 -7 -36 -6 -36 24 0 34 -14 41 -29 14 -9 -17 -10 -17 -16 -1 -6 15 -9
16 -22 3 -8 -8 -20 -15 -26 -14 -9 0 -8 2 1 6 22 9 13 23 -15 23 -22 0 -25 -2
-13 -10 13 -8 12 -10 -2 -10 -10 0 -18 4 -18 9 0 5 -36 9 -80 9 -44 0 -80 -3
-80 -7 0 -4 9 -17 20 -28 16 -18 17 -22 4 -27 -29 -11 -44 -6 -44 13 0 36 -19
33 -116 -19 -52 -29 -98 -50 -101 -47 -2 3 19 72 48 154 28 81 58 166 65 188
7 22 42 125 78 229 36 103 63 192 60 197 -3 5 -1 9 5 9 5 0 15 16 21 35 6 19
17 35 23 35 7 0 26 11 42 25 17 13 33 24 36 25 4 0 18 -33 32 -72z m-13 -103
c10 -12 9 -16 -4 -21 -19 -7 -53 22 -33 29 20 9 24 8 37 -8z m0 -75 c0 -5 -4
-10 -10 -10 -5 0 -10 5 -10 10 0 6 5 10 10 10 6 0 10 -4 10 -10z m300 -414 c0
-2 -7 -7 -16 -10 -8 -3 -12 -2 -9 4 6 10 25 14 25 6z m-120 -41 c0 -2 -8 -9
-18 -14 -14 -8 -19 -6 -19 5 0 7 9 14 19 14 10 0 18 -2 18 -5z m15 -25 c-3 -5
-11 -10 -16 -10 -6 0 -7 5 -4 10 3 6 11 10 16 10 6 0 7 -4 4 -10z m-222 -82
c-5 -19 -3 -21 8 -10 7 6 19 12 27 12 8 0 10 -5 6 -12 -6 -10 -4 -10 7 -2 16
12 52 10 89 -5 19 -7 -4 -10 -93 -10 -105 -1 -118 1 -115 16 4 20 28 30 28 11
0 -8 7 -15 15 -15 9 0 14 6 11 13 -5 13 2 24 15 24 4 0 5 -10 2 -22z m327 -49
c0 -5 5 -7 12 -3 7 4 8 3 4 -5 -6 -9 -11 -9 -22 0 -17 14 -18 19 -4 19 6 0 10
-5 10 -11z m17 -61 c-3 -8 -6 -5 -6 6 -1 11 2 17 5 13 3 -3 4 -12 1 -19z m31
-73 c-3 -3 -9 2 -12 12 -6 14 -5 15 5 6 7 -7 10 -15 7 -18z"/>
<path d="M7627 2143 c5 -12 3 -14 -8 -8 -24 15 -50 13 -47 -4 2 -11 17 -17 51
-19 26 -1 47 -1 47 1 0 7 -37 47 -43 47 -4 0 -3 -7 0 -17z"/>
<path d="M7789 1577 c12 -15 11 -17 -3 -17 -18 0 -22 -15 -6 -25 6 -3 10 -1
10 4 0 6 5 10 11 9 22 -5 19 17 -3 31 -21 13 -22 13 -9 -2z"/>
<path d="M7848 1418 c5 -5 16 -8 23 -6 8 3 3 7 -10 11 -17 4 -21 3 -13 -5z"/>
<path d="M7820 1412 c0 -12 19 -26 26 -19 2 2 -2 10 -11 17 -9 8 -15 8 -15 2z"/>
<path d="M11275 2469 c-66 -15 -69 -17 -55 -34 10 -12 16 -13 26 -4 10 8 14 8
14 1 0 -7 19 -9 53 -7 l52 5 -65 -15 c-92 -21 -165 -61 -215 -118 l-44 -48 21
-21 20 -20 -28 -18 c-27 -16 -51 -18 -29 -2 20 14 9 43 -27 67 -36 24 -37 25
-48 6 -15 -29 -12 -38 6 -15 15 18 15 17 10 -18 -4 -34 -2 -39 21 -44 24 -6
25 -10 20 -54 -5 -45 -4 -49 19 -54 15 -4 22 -11 18 -18 -4 -6 -1 -9 7 -6 8 3
20 -2 27 -11 12 -14 13 -14 8 1 -3 10 -1 20 4 23 5 3 10 -5 12 -17 5 -27 12
97 9 163 -1 39 2 47 19 52 11 3 20 11 20 19 1 18 75 63 108 65 15 1 65 5 113
9 131 10 242 -28 292 -101 17 -25 27 -31 37 -24 34 21 40 10 40 -64 0 -39 -4
-87 -9 -105 -5 -17 -6 -32 -3 -32 8 0 114 342 108 347 -1 2 -25 -8 -52 -22
-27 -14 -53 -25 -57 -25 -4 0 -25 11 -45 25 -20 14 -30 25 -22 25 8 0 24 -7
34 -15 24 -18 60 -20 50 -3 -5 8 -2 9 11 4 15 -5 16 -4 5 9 -15 18 0 20 19 3
11 -10 10 -8 0 10 -17 27 -26 28 -34 2 -3 -11 -13 -20 -21 -20 -18 0 -46 25
-37 34 3 3 12 -2 20 -12 12 -16 13 -16 6 2 -5 16 -3 18 13 13 18 -7 18 -6 1 7
-16 13 -23 12 -53 -6 l-34 -20 10 26 c6 18 7 25 0 21 -6 -3 -10 -2 -10 4 0 5
-18 12 -41 16 -32 5 -45 3 -60 -11 -14 -13 -19 -14 -17 -5 6 26 -43 41 -127
40 -44 -1 -98 -5 -120 -10z m340 -77 c-2 -2 -13 -1 -26 3 -16 5 -18 9 -9 15
11 7 43 -10 35 -18z m-580 -242 c3 -5 1 -10 -4 -10 -6 0 -11 5 -11 10 0 6 2
10 4 10 3 0 8 -4 11 -10z m15 -34 c0 -2 -7 -6 -15 -10 -8 -3 -15 -1 -15 4 0 6
7 10 15 10 8 0 15 -2 15 -4z"/>
<path d="M11175 2440 c-3 -6 1 -7 9 -4 18 7 21 14 7 14 -6 0 -13 -4 -16 -10z"/>
<path d="M513 2408 c26 -22 41 -46 47 -73 15 -64 13 -511 -2 -522 -20 -15
-109 -43 -119 -37 -5 3 -9 0 -9 -6 0 -7 -7 -9 -16 -6 -10 4 -13 2 -8 -6 5 -8
2 -9 -10 -5 -9 4 -15 3 -12 -2 3 -5 -1 -12 -10 -15 -24 -9 -31 -7 -14 5 13 9
13 10 0 6 -8 -2 -15 -10 -15 -17 0 -7 -6 -15 -14 -18 -9 -3 -11 0 -6 8 4 7
-10 3 -33 -10 -46 -26 -152 -118 -112 -98 14 7 27 15 30 18 3 3 16 14 30 25
15 12 11 4 -11 -20 -53 -59 -92 -113 -127 -175 -29 -50 -47 -66 -22 -19 6 10
7 19 3 19 -10 0 -38 -42 -35 -52 1 -5 -2 -8 -7 -8 -16 0 -34 -104 -29 -166 2
-33 13 -77 24 -99 l19 -40 8 75 c10 92 56 233 104 318 51 93 149 192 232 236
68 36 164 66 210 66 32 0 22 -9 -12 -12 -25 -2 -27 -6 -27 -43 0 -41 0 -41 41
-44 27 -1 39 2 34 9 -4 6 -15 8 -24 5 -21 -6 -46 19 -36 35 5 8 11 8 21 -1 10
-8 14 -8 14 0 0 6 9 11 20 11 14 0 20 7 20 21 0 11 -4 17 -10 14 -5 -3 -10 -2
-10 4 0 5 6 12 13 14 7 4 6 6 -4 6 -19 1 -35 31 -16 31 9 0 8 3 -1 9 -8 4 -14
12 -14 17 1 5 -7 8 -16 6 -11 -1 -9 2 6 11 24 14 20 27 -10 27 -10 0 -18 5
-18 10 0 6 5 10 11 10 7 0 9 10 5 25 -4 17 -2 25 6 25 15 0 40 35 31 44 -3 3
-12 1 -20 -5 -8 -8 -13 -8 -13 -1 0 6 6 12 13 15 14 4 17 77 2 77 -5 0 -3 5 6
10 12 7 15 20 12 45 -2 25 1 37 12 41 8 3 12 10 9 15 -3 5 -10 7 -15 4 -5 -4
-9 0 -9 8 0 8 6 17 14 20 8 3 16 16 19 29 8 41 10 -143 8 -809 -1 -431 -2
-472 -17 -466 -14 5 -15 3 -5 -14 8 -17 6 -24 -11 -39 -20 -19 -21 -19 -13 4
5 17 1 30 -13 45 -25 27 -38 72 -23 82 7 3 10 1 9 -6 -2 -6 2 -13 7 -15 6 -2
11 4 12 15 1 11 -6 21 -18 24 -10 3 -19 11 -19 18 0 10 3 10 12 1 7 -7 17 -12
22 -12 6 1 0 10 -13 20 -14 12 -18 20 -10 20 12 0 12 2 0 9 -8 5 -11 16 -8 25
3 8 2 18 -3 21 -4 3 -10 -54 -12 -126 l-3 -130 -42 -40 -42 -39 197 0 c177 1
195 2 177 16 -38 28 -53 42 -63 60 -9 15 -13 16 -42 4 -29 -12 -33 -11 -53 8
l-21 22 36 0 c69 0 68 -2 68 147 0 114 -3 140 -20 176 -11 23 -17 43 -13 44 5
2 7 22 7 45 -2 54 8 73 17 33 l7 -30 1 33 c0 17 -3 32 -9 32 -5 0 -10 5 -10
11 0 5 5 7 10 4 6 -3 10 1 10 10 0 9 -4 14 -9 11 -13 -8 -18 13 -15 57 2 20
-2 37 -7 37 -5 0 -4 6 3 14 7 8 17 12 21 9 5 -3 4 4 -2 15 -14 26 -14 35 -1
27 6 -3 10 3 10 15 0 12 -5 18 -10 15 -15 -9 -25 24 -11 38 8 8 6 15 -6 29 -9
10 -12 18 -7 19 5 0 0 4 -11 9 -36 17 118 1 201 -20 93 -24 254 -100 340 -161
90 -64 234 -192 234 -208 0 -16 57 -68 83 -77 11 -3 16 -12 13 -21 -8 -21 4
-38 16 -22 5 9 7 -3 3 -32 -4 -25 -7 -190 -8 -366 -1 -177 -6 -325 -10 -329
-4 -4 -7 -2 -7 5 0 7 -5 9 -12 5 -8 -5 -9 -2 -4 12 6 16 5 16 -13 -3 -22 -23
-28 -53 -11 -53 6 0 9 5 8 11 -2 6 3 14 10 16 6 3 12 0 12 -7 0 -6 4 -9 9 -5
5 3 12 1 15 -4 12 -18 -122 -101 -164 -101 -11 0 -20 -4 -20 -10 0 -6 70 -10
190 -10 105 0 190 2 190 5 0 3 -17 20 -37 39 -34 31 -40 33 -54 20 -15 -13
-20 -12 -45 11 -16 14 -21 22 -12 19 9 -3 29 1 45 10 23 13 25 15 8 16 -18 1
-19 2 -3 13 20 16 22 104 3 127 -7 8 -12 30 -11 48 0 17 -3 32 -7 32 -12 0 -6
92 7 108 7 10 6 16 -5 23 -12 8 -12 10 1 19 11 7 11 10 2 10 -7 0 -12 6 -11
13 2 6 -1 44 -5 82 -4 39 -9 92 -11 120 -1 27 -8 51 -14 53 -22 7 1 22 34 22
24 0 45 -10 77 -37 58 -48 173 -133 227 -168 l45 -28 -33 42 c-18 22 -38 38
-43 35 -6 -4 -8 -2 -4 4 3 6 -14 39 -39 75 -24 35 -60 101 -79 147 -42 98 -61
123 -90 114 -18 -6 -19 -5 -7 10 11 14 11 16 -2 16 -8 0 -14 8 -13 18 1 13 -8
18 -39 20 -22 2 -45 8 -52 14 -9 7 -13 7 -13 0 0 -10 59 -32 87 -32 7 0 10 -7
7 -15 -4 -9 -20 -16 -43 -16 -31 -2 -32 -3 -8 -6 18 -3 32 -14 39 -29 13 -28
12 -30 -27 -38 -29 -6 -31 -5 -59 65 -25 63 -37 78 -110 140 -44 38 -116 93
-158 121 -54 36 -74 55 -65 61 8 6 6 7 -6 3 -10 -3 -41 6 -69 20 -74 38 -122
54 -218 74 -47 10 -75 19 -62 19 12 1 22 6 22 11 0 16 60 12 66 -5 5 -11 10
-12 26 -4 16 8 19 8 13 -1 -5 -9 -2 -10 12 -6 13 4 25 0 33 -9 10 -12 15 -13
21 -4 5 9 14 8 33 -5 15 -9 24 -21 21 -26 -4 -6 0 -10 7 -11 44 -2 71 -10 97
-28 16 -12 40 -21 53 -21 13 0 31 -11 42 -25 18 -24 44 -26 29 -2 -4 7 1 6 11
-2 12 -10 14 -16 5 -22 -8 -4 -4 -9 11 -14 13 -4 27 -2 34 5 8 10 7 12 -6 7
-11 -4 -17 -2 -15 5 3 18 -119 95 -203 127 -114 44 -220 63 -352 64 -86 0
-118 4 -118 12 0 7 -7 18 -15 25 -8 7 -13 16 -10 20 3 5 -2 15 -10 23 -8 9
-15 22 -15 30 0 7 -3 17 -7 21 -10 10 -3 89 9 103 6 7 8 22 5 32 -2 11 4 33
14 50 19 32 27 59 9 31 -8 -12 -10 -11 -10 7 0 16 4 21 15 17 12 -5 15 5 15
54 l0 61 -36 7 c-31 6 -34 9 -22 21 11 10 21 11 39 5 20 -8 31 -4 68 29 48 43
47 46 -6 24 -20 -9 -64 -16 -97 -17 -45 -1 -65 -6 -77 -20 -16 -17 -18 -17
-65 9 -27 15 -51 29 -54 32 -3 3 -16 8 -30 9 -23 4 -22 1 13 -30z m267 -578
c0 -5 -5 -10 -11 -10 -5 0 -7 5 -4 10 3 6 8 10 11 10 2 0 4 -4 4 -10z m113 -7
c-7 -2 -21 -2 -30 0 -10 3 -4 5 12 5 17 0 24 -2 18 -5z m-593 -133 c-14 -10
-27 -17 -29 -14 -6 5 31 33 44 33 6 1 -1 -8 -15 -19z m1491 -447 c13 -16 12
-17 -3 -4 -17 13 -22 21 -14 21 2 0 10 -8 17 -17z m-1187 -315 c-3 -4 -9 -8
-15 -8 -5 0 -9 4 -9 8 0 5 7 9 15 9 8 0 12 -4 9 -9z m-59 -28 c-3 -5 -12 -10
-18 -10 -7 0 -6 4 3 10 19 12 23 12 15 0z"/>
<path d="M5147 2408 c17 -18 38 -48 47 -65 13 -26 134 -338 213 -551 12 -32
19 -40 26 -30 6 9 7 7 2 -7 -8 -23 314 -895 330 -895 6 0 23 46 39 102 16 56
52 146 80 200 56 108 165 268 182 268 21 0 125 -135 165 -212 34 -67 60 -98
84 -98 8 0 -1 33 -22 82 -9 21 -19 35 -24 33 -10 -7 -72 83 -72 104 0 9 -22
41 -49 70 -26 30 -48 58 -48 61 0 3 16 22 36 41 l36 34 65 -69 c107 -115 170
-243 244 -491 37 -125 57 -149 62 -76 1 17 5 31 9 31 4 0 5 7 2 15 -4 8 -1 15
6 15 7 0 9 8 5 21 -4 13 -2 24 4 29 7 4 13 17 14 28 1 12 4 22 8 22 10 0 50
110 44 120 -3 5 -1 10 4 12 5 1 55 138 111 303 166 489 160 468 143 481 -11
10 -11 13 -1 17 11 3 11 8 0 26 -7 11 -9 21 -5 21 5 0 8 13 9 29 1 22 -2 26
-11 18 -7 -7 -10 -18 -7 -26 3 -8 1 -12 -4 -8 -10 6 -28 -30 -37 -73 -5 -26
-178 -543 -199 -593 -7 -18 -14 -24 -18 -17 -6 9 -9 9 -14 1 -4 -6 -1 -14 7
-17 13 -5 13 -12 -2 -54 -9 -26 -29 -66 -44 -89 -15 -23 -23 -41 -17 -41 5 0
10 -5 10 -11 0 -5 -5 -7 -11 -3 -8 5 -10 -1 -7 -20 3 -14 1 -26 -3 -26 -5 0
-9 13 -9 29 0 19 -11 41 -31 63 -39 41 -139 200 -110 174 16 -14 26 -17 42
-10 20 9 19 12 -29 64 -28 30 -78 75 -111 100 -33 25 -61 50 -61 55 0 19 72
73 203 153 82 50 94 61 75 65 -12 4 -26 1 -31 -6 -6 -8 -7 -7 -4 4 3 9 1 21
-4 26 -7 7 11 26 53 56 74 53 124 100 150 142 22 36 23 45 3 45 -8 0 -24 -18
-35 -40 -24 -47 -70 -95 -145 -150 -32 -23 -55 -48 -55 -59 0 -12 -32 -39 -93
-79 -51 -33 -116 -81 -144 -106 -51 -46 -80 -59 -70 -31 4 8 1 17 -5 21 -7 4
-8 3 -4 -4 12 -20 -10 -13 -29 8 -13 14 -14 20 -5 20 8 0 -6 15 -29 33 -24 17
-61 47 -83 65 -22 17 -50 32 -63 32 -12 0 -28 7 -35 15 -10 12 -7 13 20 5 29
-8 32 -7 45 23 14 35 92 117 110 117 7 0 25 13 41 30 16 16 35 30 42 30 7 0
10 5 7 10 -6 9 8 15 29 11 5 -1 6 6 2 15 -5 14 -4 15 9 4 12 -10 15 -10 15 2
0 8 -11 20 -25 26 -26 12 -59 6 -49 -9 3 -5 -5 -7 -18 -5 -13 2 -32 -1 -43 -7
-17 -8 -16 -5 5 19 33 37 7 19 -83 -59 -37 -33 -71 -57 -74 -53 -4 3 -1 6 6 6
9 0 9 5 1 20 -6 11 -9 24 -7 28 3 4 -1 13 -9 19 -8 8 -15 9 -19 3 -3 -6 -1
-10 5 -10 6 0 8 -5 5 -10 -5 -8 -11 -7 -21 1 -11 9 -14 8 -14 -2 0 -8 -9 -20
-20 -27 -11 -7 -20 -19 -20 -28 0 -11 -5 -14 -16 -10 -15 6 -15 -4 3 -51 4 -9
-5 -13 -26 -13 -18 0 -34 -6 -37 -14 -6 -17 28 -164 58 -248 15 -42 26 -58 39
-58 40 0 100 -34 134 -75 19 -24 31 -46 27 -49 -5 -3 -15 7 -22 22 l-12 27
-43 -48 c-49 -53 -56 -86 -17 -79 18 3 20 7 10 13 -11 7 -10 9 1 9 8 0 26 10
40 23 16 14 11 4 -13 -28 -22 -27 -44 -54 -50 -60 -6 -5 -17 -21 -23 -35 -9
-19 -12 -21 -12 -7 -1 11 -6 15 -12 11 -8 -5 -8 -1 0 14 10 20 10 20 -19 6
l-29 -15 19 -32 c18 -29 18 -33 3 -49 -18 -20 -38 -25 -27 -6 4 7 3 8 -5 4 -6
-4 -9 -11 -6 -16 3 -4 -1 -11 -7 -13 -8 -3 -6 -6 5 -6 9 -1 17 -5 17 -11 0 -5
-7 -7 -16 -3 -14 5 -16 2 -11 -18 3 -13 2 -31 -4 -39 -7 -11 -9 -4 -7 27 1 27
-3 48 -14 60 -8 10 -22 32 -31 48 -15 31 -179 469 -202 540 -7 22 -50 134 -94
250 -76 196 -91 252 -74 268 3 4 17 -3 30 -15 18 -17 23 -18 23 -6 0 9 -7 19
-16 22 -8 3 -12 11 -8 17 4 8 9 7 15 -2 6 -9 9 -1 9 24 0 27 7 45 25 63 14 14
25 27 25 30 0 10 -87 -40 -115 -67 l-30 -28 -30 20 c-35 24 -141 79 -152 79
-4 0 7 -15 24 -32z m164 -101 c-8 -8 -14 -7 -23 2 -11 10 -9 11 6 5 15 -6 17
-4 11 6 -6 9 -4 11 4 5 9 -5 10 -10 2 -18z m534 -407 c10 -11 13 -20 7 -20 -6
0 -16 9 -22 20 -6 11 -9 20 -7 20 2 0 12 -9 22 -20z m230 -238 c-4 -5 -145
105 -145 113 0 3 34 -20 75 -52 41 -31 73 -58 70 -61z m-79 22 c46 -36 86 -70
90 -75 3 -6 -1 -18 -10 -28 -9 -10 -13 -21 -9 -24 3 -4 0 -7 -7 -7 -7 0 -11
-3 -7 -6 3 -3 21 4 39 17 29 20 28 17 -12 -24 l-44 -47 -45 42 c-25 24 -50 48
-57 54 -7 7 -10 15 -6 19 4 5 -1 5 -10 2 -10 -3 -20 -1 -24 5 -5 7 -2 8 6 3 8
-5 11 -3 8 6 -3 8 -14 13 -25 11 -22 -3 -40 15 -40 40 0 10 7 15 18 13 13 -3
21 6 29 31 6 19 14 34 16 34 3 0 43 -30 90 -66z m219 -94 c3 -5 -1 -10 -9 -10
-8 0 -18 5 -21 10 -3 6 1 10 9 10 8 0 18 -4 21 -10z m125 -142 c0 -13 -4 -10
-45 34 l-40 41 42 -34 c24 -19 43 -37 43 -41z m-250 28 c0 -11 -19 -15 -25 -6
-3 5 1 10 9 10 9 0 16 -2 16 -4z m40 -61 c13 -14 21 -25 18 -25 -2 0 -15 11
-28 25 -13 14 -21 25 -18 25 2 0 15 -11 28 -25z m41 -52 c13 -16 12 -17 -3 -4
-10 7 -18 15 -18 17 0 8 8 3 21 -13z"/>
<path d="M5855 1661 c-9 -16 9 -20 23 -5 10 12 10 14 -2 14 -8 0 -17 -4 -21
-9z"/>
<path d="M5978 1559 c19 -17 37 -27 40 -24 8 8 -47 55 -63 55 -5 0 5 -14 23
-31z"/>
<path d="M6846 2418 c15 -13 38 -21 51 -20 13 2 23 -1 23 -7 0 -6 -8 -11 -18
-11 -27 0 -29 -6 -22 -55 4 -26 3 -48 -4 -55 -7 -7 -6 -10 2 -10 7 0 12 -7 12
-16 0 -9 -5 -12 -12 -8 -9 6 -9 3 0 -9 9 -11 11 -27 7 -49 -12 -56 3 -26 38
73 41 117 39 115 90 139 49 24 51 24 43 4 -5 -14 -4 -15 9 -4 8 7 12 17 8 23
-3 5 -2 7 4 4 6 -4 19 0 29 8 17 13 1 14 -135 15 l-154 0 29 -22z"/>
<path d="M8176 2429 c2 -4 30 -10 62 -14 92 -9 176 -26 190 -37 9 -8 19 -7 36
1 19 11 28 10 52 -3 70 -38 64 32 64 -734 l0 -692 -24 -15 c-22 -15 -27 -15
-55 0 -26 13 -31 13 -31 1 0 -8 -19 -31 -42 -50 l-42 -36 199 0 c183 0 198 1
177 16 -12 8 -27 12 -32 9 -6 -4 -10 -3 -9 2 1 4 -5 25 -14 45 -15 32 -17 83
-17 378 l0 340 58 -6 c203 -22 310 -109 551 -450 306 -430 586 -630 1007 -720
307 -65 673 -49 944 41 87 29 213 100 250 141 24 26 13 25 -20 -1 -66 -54
-290 -145 -367 -148 -21 -1 -41 -6 -44 -11 -4 -5 -30 -10 -57 -11 -28 -2 -54
-5 -59 -7 -15 -8 -97 -12 -271 -12 -143 -1 -174 2 -182 14 -8 13 -10 13 -10 1
0 -12 -2 -12 -12 1 -7 9 -29 18 -48 21 -19 3 -44 9 -54 13 -15 6 -17 4 -11 -6
6 -10 4 -11 -6 -4 -8 4 -24 7 -36 6 -44 -6 -274 94 -398 173 -117 74 -309 249
-301 272 3 8 2 12 -3 8 -12 -7 -77 70 -181 215 -109 151 -192 252 -262 321
-59 58 -178 128 -219 130 -17 1 -19 3 -6 6 9 2 17 11 17 19 0 11 -25 14 -140
14 l-140 0 -1 73 c-1 39 -1 140 0 222 1 104 -1 145 -9 135 -5 -8 -10 -10 -10
-5 0 6 5 16 12 23 8 8 8 15 -3 28 -8 10 -9 15 -4 12 7 -4 11 23 13 75 1 44 4
83 6 85 12 11 164 23 241 18 143 -9 243 -49 303 -122 29 -36 30 -36 56 -19 14
10 26 21 26 26 0 5 7 9 16 9 21 0 66 -102 72 -163 l5 -50 -29 8 c-71 18 -71
18 -77 -56 -6 -71 -31 -141 -67 -187 -20 -25 -20 -27 -3 -33 17 -7 17 -7 -1
-14 -11 -5 -21 -3 -27 6 -8 14 -10 12 -13 -13 0 -7 -12 -16 -26 -20 -15 -4 6
-6 49 -3 132 8 228 71 274 180 21 51 30 142 18 180 -5 17 -10 24 -10 17 -1 -9
-6 -10 -21 -2 -11 6 -17 16 -14 25 4 8 1 15 -7 15 -7 0 -9 3 -6 6 7 7 -42 54
-55 54 -5 0 -8 4 -8 9 0 15 -58 69 -66 62 -4 -3 -4 3 0 14 4 11 4 16 0 13 -4
-4 -15 -3 -26 3 -14 8 -19 18 -15 35 2 13 0 24 -4 24 -5 0 -9 3 -8 8 1 4 -2
17 -6 30 -6 19 -10 20 -23 10 -13 -11 -15 -10 -10 4 5 13 -5 19 -55 32 -92 22
-144 26 -157 11 -8 -9 -8 -15 0 -20 19 -12 10 -22 -15 -17 -15 2 -25 11 -24
21 0 10 2 11 6 4 7 -20 19 -15 20 8 2 20 1 20 -417 18 -231 -1 -417 -6 -414
-10z m610 -28 c19 3 44 -1 44 -8 0 -5 -23 -9 -50 -10 -28 -1 -50 3 -50 8 0 5
7 9 15 9 8 0 15 6 15 13 0 9 2 9 9 -1 4 -7 12 -12 17 -11z m107 -8 c-7 -2 -19
-2 -25 0 -7 3 -2 5 12 5 14 0 19 -2 13 -5z m-203 -13 c-19 -4 -43 -11 -52 -15
-10 -4 -18 -4 -18 -1 0 11 43 25 75 24 29 0 29 0 -5 -8z m720 -400 c0 -17 -2
-19 -14 -8 -14 13 -12 28 5 28 5 0 9 -9 9 -20z m-911 -1069 c8 -5 9 -11 3 -15
-5 -3 -15 1 -22 9 -14 16 -3 20 19 6z"/>
<path d="M2595 2414 c-33 -8 -64 -20 -70 -27 -5 -6 -6 -8 -1 -4 5 4 15 2 23
-4 10 -9 19 -7 38 5 14 9 25 12 25 6 0 -6 -7 -13 -15 -16 -8 -4 -15 -10 -15
-14 0 -5 12 -2 28 5 15 8 27 20 27 27 0 7 8 14 19 16 10 2 16 0 12 -6 -3 -5 0
-12 7 -15 7 -3 12 4 12 19 0 28 -6 28 -90 8z"/>
<path d="M2835 2413 c16 -12 16 -14 3 -10 -10 3 -20 2 -23 -3 -4 -6 -1 -10 4
-10 6 0 11 -4 11 -9 0 -4 -42 -11 -93 -14 -156 -9 -292 -81 -397 -212 -30 -36
-57 -65 -62 -65 -4 0 -7 -3 -7 -7 4 -22 -2 -43 -11 -43 -16 0 -12 37 6 54 9
10 11 16 4 16 -12 0 -8 19 16 78 7 18 14 36 14 40 1 4 11 18 23 32 l22 24 -25
-15 c-68 -43 -180 -220 -216 -344 -49 -171 35 -438 188 -598 52 -55 62 -62 42
-32 -43 67 -80 146 -109 235 -25 75 -28 101 -29 218 -1 87 3 135 10 140 6 4
15 18 19 32 10 33 25 51 36 44 5 -3 9 0 9 5 0 6 -5 11 -11 11 -5 0 -8 4 -4 10
3 5 12 7 19 4 7 -3 16 3 20 13 11 30 33 64 41 63 4 -1 18 8 32 20 14 12 31 19
39 16 16 -6 34 22 26 43 -3 10 0 12 11 8 11 -4 14 -2 11 7 -3 8 -1 17 5 21 6
3 11 1 11 -6 0 -8 7 -5 20 6 11 10 17 22 14 27 -3 4 0 7 8 6 7 -2 12 2 11 9
-1 6 4 14 13 17 8 3 13 2 10 -2 -3 -4 24 7 59 24 114 57 238 55 364 -7 80 -40
186 -143 223 -217 l27 -54 7 36 c7 41 27 61 23 25 -1 -13 14 -58 34 -99 68
-139 104 -339 92 -510 -6 -79 -4 -98 8 -108 22 -18 11 -51 -15 -44 -16 4 -19
1 -16 -14 2 -10 10 -18 16 -17 16 4 15 -6 -4 -37 -13 -22 -14 -22 -9 -3 3 12
1 24 -5 28 -8 5 -12 -7 -9 -31 0 -4 -3 -10 -8 -13 -15 -11 -33 -62 -27 -74 4
-7 4 -9 0 -5 -5 4 -30 -26 -56 -66 -27 -40 -72 -93 -99 -119 -28 -26 -48 -47
-45 -47 10 0 92 56 136 93 29 24 52 54 59 76 6 20 20 48 30 63 11 14 19 30 19
35 0 4 11 21 25 37 14 16 25 35 25 42 0 7 8 18 18 23 9 5 23 29 30 52 11 36
11 45 0 54 -11 8 -14 50 -14 205 1 107 3 184 4 170 5 -33 20 -50 43 -50 14 0
19 7 19 28 0 49 -38 209 -65 272 -33 78 -79 153 -89 143 -4 -4 -4 1 0 12 6 14
4 17 -9 12 -9 -3 -19 -2 -22 2 -3 5 -15 7 -26 4 -19 -5 -20 -3 -14 18 7 22 6
23 -10 8 -14 -14 -15 -21 -5 -39 21 -39 4 -32 -35 14 -20 24 -63 64 -96 88
-60 43 -68 55 -48 75 14 14 -11 55 -29 48 -7 -3 -10 -1 -7 5 9 14 -91 42 -165
46 -61 3 -64 2 -45 -13z m-415 -283 c0 -5 -4 -10 -10 -10 -5 0 -10 5 -10 10 0
6 5 10 10 10 6 0 10 -4 10 -10z m895 -50 c10 -11 15 -20 12 -20 -4 0 -16 9
-27 20 -11 11 -16 20 -12 20 5 0 17 -9 27 -20z m-1086 -107 c-20 -49 -24 -54
-35 -38 -7 9 -17 14 -22 11 -5 -3 -7 6 -4 22 3 15 7 22 9 16 5 -15 42 -6 45
10 0 6 2 16 3 21 2 6 3 19 4 30 2 19 2 19 12 2 8 -14 5 -32 -12 -74z m-19 27
c0 -5 -2 -10 -4 -10 -3 0 -8 5 -11 10 -3 6 -1 10 4 10 6 0 11 -4 11 -10z m-19
-87 c13 -16 12 -17 -3 -4 -10 7 -18 15 -18 17 0 8 8 3 21 -13z m1213 -9 c9
-23 7 -36 -3 -30 -12 8 -21 46 -11 46 4 0 11 -7 14 -16z m13 -76 c-3 -8 -6 -5
-6 6 -1 11 2 17 5 13 3 -3 4 -12 1 -19z m-7 -423 c0 -8 -2 -15 -4 -15 -2 0 -6
7 -10 15 -3 8 -1 15 4 15 6 0 10 -7 10 -15z"/>
<path d="M7545 2418 c-24 -14 -39 -30 -42 -43 -1 -6 -4 -30 -8 -55 -4 -24 -11
-52 -16 -62 -5 -10 -7 -18 -3 -18 4 0 0 -8 -8 -17 -8 -10 -19 -25 -23 -33 -8
-13 -7 -13 9 -1 16 13 17 12 11 -15 -5 -23 -2 -21 13 12 11 23 30 54 43 69 13
14 25 32 25 38 1 7 2 18 3 25 0 7 5 11 11 7 5 -3 6 -13 3 -23 -5 -13 -3 -14 7
-5 9 9 7 18 -11 43 -15 20 -20 34 -13 38 6 4 13 15 17 25 4 10 11 15 17 12 5
-3 10 -1 10 4 0 14 -20 13 -45 -1z"/>
<path d="M4313 2400 c-79 -16 -243 -90 -243 -110 0 -18 22 -21 39 -6 13 12 20
13 29 4 9 -9 12 -9 12 1 0 7 4 10 9 6 5 -3 12 -1 16 5 4 6 10 8 15 5 5 -3 14
1 22 8 7 7 41 19 75 26 35 8 68 20 74 27 14 17 33 19 23 3 -5 -8 -1 -8 13 0
11 6 23 7 27 4 3 -3 6 3 6 15 0 19 -5 22 -37 21 -21 -1 -57 -5 -80 -9z"/>
<path d="M4444 2393 c2 -13 19 -22 57 -30 53 -12 53 -13 9 -8 -58 5 -168 -11
-248 -36 -107 -35 -232 -135 -309 -247 -26 -37 -40 -49 -47 -42 -8 8 -5 14 9
22 19 11 19 11 0 18 -18 6 -17 8 4 29 12 12 19 26 16 30 -2 5 2 12 10 15 9 3
20 17 25 31 5 14 14 25 19 25 6 0 8 7 5 15 -4 8 1 17 9 21 9 3 18 12 21 21 8
19 -62 -36 -106 -85 -87 -97 -144 -207 -178 -348 -19 -76 -21 -107 -17 -219 3
-83 13 -159 26 -210 73 -281 269 -466 564 -530 110 -24 337 -17 457 14 105 28
124 37 114 59 -3 9 -6 25 -6 34 0 10 -3 18 -9 18 -5 0 -9 -4 -9 -10 0 -5 -9
-10 -21 -10 -16 0 -11 8 27 38 l47 37 49 -23 c26 -12 48 -25 48 -28 0 -3 -5
-2 -12 2 -7 4 -8 3 -4 -4 5 -9 14 -7 31 4 l25 16 -20 28 c-11 16 -20 40 -20
54 0 23 -4 26 -37 26 l-36 0 23 25 c23 25 23 25 2 25 -11 0 -24 -5 -27 -10 -3
-5 -1 -10 6 -10 8 0 8 -4 -1 -15 -7 -8 -15 -15 -19 -15 -3 0 -5 46 -3 102 2
56 -2 140 -8 186 -11 78 -15 85 -44 103 -46 28 -145 59 -238 74 -46 7 -85 12
-87 10 -9 -9 13 -25 35 -25 13 0 50 -9 82 -20 66 -23 146 -99 157 -151 4 -17
10 -27 14 -21 7 12 3 -196 -5 -246 -11 -69 -95 -132 -197 -147 -26 -4 -49 -11
-52 -15 -9 -14 7 -41 21 -36 7 3 16 2 18 -3 6 -10 -8 -11 -120 -12 -108 -1
-229 27 -319 74 -92 48 -213 174 -257 267 -64 136 -88 240 -88 385 0 133 57
355 90 355 6 0 8 -5 4 -11 -6 -11 -4 -11 56 7 21 6 23 5 13 -8 -7 -8 -10 -18
-7 -21 4 -4 22 19 41 51 19 31 47 73 63 94 23 29 26 37 15 42 -25 9 -17 33 19
61 38 29 72 38 94 26 9 -5 37 1 76 17 50 21 78 25 156 26 89 1 99 -1 170 -35
41 -20 99 -55 127 -78 65 -51 153 -156 199 -236 31 -55 33 -57 28 -25 -7 43
-41 165 -56 203 -20 51 -166 159 -283 209 l-40 18 40 -7 c22 -3 42 -9 45 -14
8 -11 62 -31 68 -24 3 3 0 5 -7 5 -8 0 -9 5 -1 19 13 26 2 32 -51 25 -29 -3
-39 -2 -30 4 17 12 4 35 -16 28 -8 -3 -12 -2 -9 3 8 13 -74 31 -138 31 -46 0
-54 -3 -52 -17z m-450 -369 c29 -11 17 -20 -21 -16 -31 4 -34 6 -18 13 11 4
21 8 22 8 1 1 8 -2 17 -5z m-257 -386 c-3 -8 -6 -5 -6 6 -1 11 2 17 5 13 3 -3
4 -12 1 -19z m1151 -526 c6 6 12 6 17 -3 5 -8 4 -10 -3 -5 -16 10 -15 -2 1
-17 16 -16 47 -21 47 -7 0 5 12 10 27 10 19 0 24 -3 16 -11 -6 -6 -17 -11 -24
-12 -8 -2 -20 -6 -27 -11 -8 -5 -20 -2 -31 8 -10 9 -22 16 -27 16 -5 0 -20 9
-34 20 l-25 20 26 -9 c17 -6 30 -6 37 1z m117 -62 c-3 -5 -18 -10 -33 -9 l-27
1 25 8 c35 11 42 11 35 0z m-127 -125 c-3 -3 -9 2 -12 12 -6 14 -5 15 5 6 7
-7 10 -15 7 -18z"/>
<path d="M11090 2399 c0 -5 5 -7 10 -4 6 3 10 8 10 11 0 2 -4 4 -10 4 -5 0
-10 -5 -10 -11z"/>
<path d="M11797 2389 c7 -7 15 -10 18 -7 3 3 -2 9 -12 12 -14 6 -15 5 -6 -5z"/>
<path d="M2550 2349 c0 -5 5 -7 10 -4 6 3 10 8 10 11 0 2 -4 4 -10 4 -5 0 -10
-5 -10 -11z"/>
<path d="M8484 2319 c-3 -5 11 -9 30 -9 19 0 37 4 40 9 3 5 -10 9 -29 9 -19 0
-38 -4 -41 -9z"/>
<path d="M8480 2203 l0 -97 20 22 c22 23 25 39 10 44 -6 2 -13 18 -15 36 -3
21 0 30 7 26 6 -4 8 1 3 15 -4 13 -1 28 5 36 10 12 9 15 -9 15 -20 0 -21 -5
-21 -97z"/>
<path d="M4798 2283 c6 -2 10 -8 7 -13 -3 -4 4 -6 15 -3 25 7 16 23 -13 22
-12 0 -16 -3 -9 -6z"/>
<path d="M4860 2239 c0 -6 -7 -8 -16 -5 -10 4 -14 2 -11 -6 2 -7 11 -12 18
-10 8 2 22 4 31 5 13 1 14 4 6 14 -13 16 -28 17 -28 2z"/>
<path d="M5370 2220 c0 -4 9 -10 20 -13 11 -3 20 -2 20 3 0 4 -9 10 -20 13
-11 3 -20 2 -20 -3z"/>
<path d="M5739 2173 c-13 -27 -25 -50 -27 -52 -1 -3 -10 3 -20 14 -9 10 -11
15 -4 11 14 -8 16 3 3 23 -7 11 -16 1 -35 -37 -31 -61 -32 -72 -7 -65 10 3 22
-1 26 -8 5 -7 4 -10 -3 -6 -5 4 -17 4 -26 1 -21 -8 -10 -27 55 -98 46 -50 89
-73 89 -46 0 6 -5 10 -11 10 -5 0 -7 4 -4 10 4 6 -1 7 -11 3 -14 -5 -16 -3
-11 11 4 10 3 15 -3 11 -6 -4 -18 13 -29 37 -32 77 -34 85 -12 107 19 19 64
111 58 118 -2 2 -15 -18 -28 -44z"/>
<path d="M6687 2159 c-5 -18 -9 -21 -16 -10 -6 9 -16 -3 -35 -45 -15 -33 -34
-72 -43 -89 -16 -30 -16 -30 3 -10 43 46 73 99 63 111 -7 8 -2 12 16 12 33 0
37 4 27 32 l-9 24 -6 -25z"/>
<path d="M4929 2153 c-13 -15 -12 -15 9 -4 23 12 28 21 13 21 -5 0 -15 -7 -22
-17z"/>
<path d="M7410 2110 c-12 -8 -9 -10 13 -10 15 0 27 5 27 10 0 13 -20 13 -40 0z"/>
<path d="M8481 2070 c0 -33 1 -34 10 -11 6 16 6 28 -1 35 -7 7 -10 -1 -9 -24z"/>
<path d="M2360 2072 c0 -5 7 -9 15 -9 8 0 12 4 9 9 -3 4 -9 8 -15 8 -5 0 -9
-4 -9 -8z"/>
<path d="M11003 2040 c1 -45 -6 -57 -44 -65 -19 -4 -29 -12 -25 -20 2 -7 0
-17 -6 -23 -12 -12 2 -39 54 -97 48 -56 140 -117 356 -237 428 -238 517 -322
514 -484 0 -28 -7 -67 -16 -87 -23 -57 -8 -44 19 16 13 28 32 96 41 150 17 95
17 98 -2 115 -11 10 -24 17 -31 15 -6 -2 -24 20 -41 50 -45 80 -133 153 -291
243 -80 46 -88 54 -27 29 20 -9 41 -13 47 -10 5 4 8 1 7 -6 -2 -6 3 -14 11
-17 9 -3 11 0 6 8 -5 7 -4 11 1 8 5 -3 15 0 22 8 11 12 9 14 -7 14 -23 0 -32
18 -19 42 7 15 -3 24 -64 55 -41 20 -89 37 -108 37 -20 1 -35 6 -35 13 0 6 -4
15 -9 20 -5 5 -6 2 -1 -6 5 -9 3 -12 -6 -9 -8 3 -13 10 -12 15 1 5 -27 26 -62
46 -60 34 -145 110 -145 129 0 4 -7 8 -15 8 -8 0 -15 5 -15 10 0 6 -7 10 -15
10 -8 0 -15 5 -15 11 0 6 -6 9 -12 6 -7 -2 -19 5 -26 17 -11 16 -12 17 -8 3 3
-11 3 -24 -1 -30 -5 -7 -10 0 -15 18 -7 30 -7 29 -5 -5z m48 -41 l21 -21 -21
7 c-19 6 -20 4 -10 -23 13 -37 95 -116 111 -106 7 4 8 3 4 -4 -6 -11 71 -69
86 -64 3 1 12 -5 18 -13 7 -8 21 -15 31 -15 9 0 24 -6 31 -12 23 -21 77 -47
91 -44 6 1 9 1 4 -1 -4 -3 -5 -9 -2 -13 16 -26 -205 92 -281 150 -62 47 -128
138 -118 163 8 22 10 21 35 -4z m189 -131 c0 -5 6 -8 14 -8 8 0 18 -5 22 -11
4 -8 -1 -9 -17 -3 -13 4 -31 7 -39 7 -19 0 -39 27 -33 44 4 9 11 8 29 -5 13
-9 24 -20 24 -24z m-105 22 c3 -6 -1 -7 -9 -4 -18 7 -21 14 -7 14 6 0 13 -4
16 -10z m148 -70 c7 0 6 -4 -3 -10 -21 -14 -27 -12 -34 6 -5 12 -2 15 10 10 8
-3 21 -6 27 -6z m43 -35 c-3 -19 -16 -32 -16 -16 0 8 -7 11 -15 7 -8 -3 -15
-1 -15 4 0 5 10 11 23 13 12 2 23 5 24 6 1 0 0 -6 -1 -14z m35 -5 c1 -5 2 -14
3 -20 0 -5 10 -16 21 -25 19 -14 18 -15 -8 -3 -18 7 -26 17 -22 26 4 12 3 13
-10 2 -16 -14 -18 -10 -9 14 7 18 23 22 25 6z m209 -75 c0 -1 -6 -7 -13 -13
-10 -8 -13 -6 -13 7 0 11 6 17 13 14 7 -3 13 -6 13 -8z"/>
<path d="M11200 1875 c7 -9 15 -13 17 -11 7 7 -7 26 -19 26 -6 0 -6 -6 2 -15z"/>
<path d="M10129 2048 c-1 -2 -2 -37 -4 -78 -2 -64 1 -76 14 -76 9 0 17 8 17
17 0 9 -6 15 -12 12 -8 -3 -11 2 -7 16 3 12 10 21 15 21 5 0 6 5 3 10 -4 6
-11 7 -17 4 -7 -5 -8 -2 -3 6 11 18 14 70 3 70 -4 0 -9 -1 -9 -2z"/>
<path d="M5720 2020 c0 -5 7 -10 15 -10 8 0 15 5 15 10 0 6 -7 10 -15 10 -8 0
-15 -4 -15 -10z"/>
<path d="M7384 2001 c0 -11 4 -17 8 -15 4 3 8 12 8 20 0 8 -4 14 -8 14 -4 0
-8 -9 -8 -19z"/>
<path d="M8480 1778 c1 -223 2 -228 21 -218 17 10 18 13 4 26 -20 20 -19 31 3
43 14 9 15 10 1 11 -18 0 -22 31 -5 42 8 5 7 8 -1 8 -7 0 -13 12 -13 26 0 14
4 23 10 19 11 -7 11 -3 14 138 1 75 -2 97 -12 97 -10 0 -10 4 2 16 21 20 20
23 -4 21 -20 -1 -21 -7 -20 -229z"/>
<path d="M6735 1900 c3 -5 8 -10 11 -10 2 0 4 5 4 10 0 6 -5 10 -11 10 -5 0
-7 -4 -4 -10z"/>
<path d="M3946 1878 c3 -4 9 -8 15 -8 5 0 9 4 9 8 0 5 -7 9 -15 9 -8 0 -12 -4
-9 -9z"/>
<path d="M10120 1870 c0 -5 5 -10 10 -10 6 0 10 5 10 10 0 6 -4 10 -10 10 -5
0 -10 -4 -10 -10z"/>
<path d="M3288 1722 c5 -116 -15 -242 -57 -365 -16 -47 -27 -88 -24 -90 2 -3
-3 -22 -11 -42 -12 -27 -20 -36 -32 -31 -11 4 -15 2 -11 -7 3 -7 -4 -19 -15
-26 -15 -9 -17 -15 -9 -20 18 -12 -85 -122 -106 -114 -11 4 -14 2 -9 -5 5 -9
1 -9 -17 -3 -21 8 -24 7 -22 -12 2 -20 -2 -22 -47 -23 -27 -1 -45 2 -40 5 6 3
-31 7 -81 8 -101 2 -217 28 -305 68 -96 44 -128 40 -77 -11 14 -14 25 -28 25
-32 0 -4 9 -9 20 -10 43 -4 48 -6 43 -18 -3 -8 10 -14 36 -19 23 -4 44 -11 47
-17 10 -16 -53 1 -125 33 -76 34 -181 111 -162 117 7 2 18 -2 23 -9 7 -11 11
-11 15 -1 2 6 16 12 29 12 20 0 11 11 -53 63 -82 66 -162 156 -233 259 -39 59
-42 61 -35 28 14 -69 57 -186 98 -265 56 -108 175 -230 267 -273 95 -44 175
-62 282 -62 164 0 286 48 394 155 47 47 61 67 61 90 0 17 14 50 31 76 18 26
32 53 32 60 0 8 9 28 20 44 11 17 20 23 20 16 0 -22 16 -1 24 31 3 15 1 28 -4
30 -7 2 -6 28 5 76 8 40 15 104 15 142 0 44 4 70 12 72 9 3 9 20 -1 74 -18
105 -27 104 -23 -4z m-996 -601 c-3 -6 -72 61 -72 70 0 4 17 -9 38 -30 20 -20
36 -38 34 -40z m355 -177 c-3 -3 -12 -4 -19 -1 -8 3 -5 6 6 6 11 1 17 -2 13
-5z"/>
<path d="M10133 1805 c0 -8 4 -12 9 -9 4 3 8 0 8 -5 0 -6 5 -11 10 -11 6 0 5
8 -2 20 -15 24 -25 26 -25 5z"/>
<path d="M6716 1772 c-3 -4 4 -9 15 -9 23 -2 25 3 4 10 -8 4 -16 3 -19 -1z"/>
<path d="M10125 1760 c3 -5 8 -10 11 -10 2 0 4 5 4 10 0 6 -5 10 -11 10 -5 0
-7 -4 -4 -10z"/>
<path d="M1675 1740 c3 -5 8 -10 11 -10 2 0 4 5 4 10 0 6 -5 10 -11 10 -5 0
-7 -4 -4 -10z"/>
<path d="M6220 1722 c-90 -68 -89 -67 -74 -86 12 -17 15 -15 52 23 21 23 36
41 33 41 -3 0 -1 4 4 8 17 12 38 42 29 41 -5 0 -25 -12 -44 -27z"/>
<path d="M570 1649 c0 -5 5 -7 10 -4 6 3 10 8 10 11 0 2 -4 4 -10 4 -5 0 -10
-5 -10 -11z"/>
<path d="M8991 1644 c-1 -25 29 -41 41 -22 12 19 10 28 -7 28 -8 0 -15 -6 -16
-12 0 -7 -4 -4 -9 7 -8 19 -9 19 -9 -1z"/>
<path d="M9056 1624 c-9 -22 -8 -24 9 -24 8 0 15 -4 15 -10 0 -5 21 -23 48
-41 26 -18 56 -41 67 -53 11 -12 27 -27 36 -34 15 -11 17 -9 15 18 -1 16 -10
38 -21 47 -18 17 -18 17 -4 -1 12 -17 12 -19 -1 -14 -21 7 -19 33 3 32 17 -2
17 -1 2 16 -27 29 -111 71 -131 63 -12 -4 -15 -3 -10 5 4 7 1 12 -7 12 -8 0
-18 -7 -21 -16z"/>
<path d="M11610 1620 c0 -5 -3 -9 -7 -7 -5 1 -9 -1 -10 -5 -2 -5 0 -8 3 -7 4
0 10 -3 13 -8 8 -12 128 -103 135 -103 5 0 2 34 -4 50 -2 3 -2 8 -1 13 0 4 -2
6 -6 5 -5 -2 -18 7 -31 20 -12 12 -27 20 -33 16 -6 -3 -17 3 -25 15 -16 22
-34 28 -34 11z m30 -30 c0 -5 -2 -10 -4 -10 -3 0 -8 5 -11 10 -3 6 -1 10 4 10
6 0 11 -4 11 -10z"/>
<path d="M4945 1548 c-47 -49 -40 -50 13 -3 22 18 48 55 39 55 -1 0 -25 -23
-52 -52z"/>
<path d="M2262 1564 c-11 -12 -10 -17 2 -30 15 -14 16 -12 16 15 0 35 0 36
-18 15z"/>
<path d="M8498 1539 c-24 -14 -23 -28 2 -22 11 3 20 12 20 19 0 16 0 16 -22 3z"/>
<path d="M571 1439 c0 -60 4 -96 8 -84 8 20 4 175 -4 184 -3 2 -5 -43 -4 -100z"/>
<path d="M4581 1488 c20 -19 48 -53 62 -75 23 -35 81 -83 102 -83 15 0 -112
134 -155 162 l-45 30 36 -34z"/>
<path d="M8486 1492 c-3 -4 4 -9 15 -9 23 -2 25 3 4 10 -8 4 -16 3 -19 -1z"/>
<path d="M6580 1429 c0 -6 4 -8 9 -4 5 3 12 1 15 -4 4 -5 -3 -12 -14 -16 -11
-4 -18 -11 -15 -16 4 -5 13 -2 21 6 9 8 19 13 24 10 4 -3 10 3 12 13 4 13 -2
18 -24 19 -15 1 -28 -2 -28 -8z"/>
<path d="M3943 1386 c7 -17 6 -17 -9 -5 -16 13 -16 12 -1 -17 9 -17 13 -34 10
-37 -3 -4 2 -9 11 -13 9 -3 13 -10 10 -15 -3 -5 8 -14 25 -20 26 -9 29 -13 19
-29 -9 -14 -9 -25 0 -44 10 -22 9 -24 -6 -20 -9 2 -3 -2 13 -10 17 -8 29 -16
27 -18 -7 -8 11 -38 23 -38 8 0 21 -8 31 -17 9 -10 32 -18 50 -18 l34 -2 -53
56 c-59 62 -98 123 -133 209 -13 32 -24 51 -24 43 0 -11 -3 -11 -17 0 -15 12
-16 12 -10 -5z"/>
<path d="M6551 1345 c-6 -16 -13 -35 -16 -41 -6 -17 41 -58 50 -44 4 7 -2 18
-14 26 -20 14 -31 51 -12 39 14 -8 20 7 11 30 -7 18 -9 17 -19 -10z"/>
<path d="M1510 1331 c0 -9 6 -18 13 -18 7 0 26 -3 42 -7 36 -9 33 -5 -17 23
-36 19 -38 20 -38 2z"/>
<path d="M5870 1340 c0 -5 5 -10 11 -10 5 0 7 5 4 10 -3 6 -8 10 -11 10 -2 0
-4 -4 -4 -10z"/>
<path d="M9415 1340 c-3 -5 1 -10 10 -10 9 0 14 -4 10 -10 -3 -5 -12 -7 -19
-4 -8 3 -17 1 -20 -4 -5 -9 28 -26 46 -23 4 0 5 -6 2 -13 -3 -8 3 -17 15 -21
11 -3 23 -15 26 -26 4 -10 11 -16 17 -13 7 5 8 2 4 -5 -5 -7 -15 -10 -25 -7
-12 5 -11 2 3 -9 11 -8 27 -15 35 -15 14 0 14 -1 1 -10 -13 -8 -13 -10 1 -10
9 0 24 -9 34 -20 10 -11 13 -20 7 -20 -7 0 -12 -7 -12 -15 0 -8 7 -15 15 -15
18 0 20 -16 3 -24 -7 -3 0 -3 17 0 16 3 27 2 23 -2 -4 -4 -2 -14 4 -23 7 -9 9
-13 4 -9 -5 4 -15 1 -22 -7 -16 -16 -19 -29 -4 -20 5 3 19 -4 31 -16 17 -17
23 -19 30 -8 6 9 7 5 3 -13 -5 -22 -3 -28 11 -28 11 0 15 -5 11 -16 -3 -8 -2
-12 4 -9 5 3 20 -4 32 -16 l23 -22 -24 6 c-17 4 -21 3 -13 -5 6 -6 23 -10 37
-10 15 0 23 -3 19 -7 -16 -11 -16 -34 1 -28 9 4 15 1 15 -8 0 -17 16 -20 25
-5 3 6 12 10 18 9 9 0 9 -2 0 -6 -7 -2 -13 -9 -13 -14 0 -6 4 -8 9 -4 5 3 12
1 16 -5 3 -5 1 -10 -4 -10 -6 0 -11 -4 -11 -10 0 -5 6 -7 13 -5 6 3 17 -5 22
-17 11 -25 49 -40 40 -15 -4 8 0 14 9 14 8 0 13 -4 10 -9 -3 -4 5 -8 18 -9 21
-1 20 -2 -7 -14 -16 -8 -24 -14 -17 -15 7 0 22 -9 34 -20 24 -22 38 -26 38
-10 0 6 -5 10 -11 10 -6 0 -17 7 -25 15 -14 13 -13 15 5 15 11 0 23 -4 26 -10
3 -5 11 -10 16 -10 6 0 -26 32 -69 71 -113 100 -264 276 -382 442 -18 26 -37
47 -42 47 -4 0 -8 7 -8 16 0 9 -9 18 -21 21 -11 3 -18 11 -15 19 6 16 -20 39
-29 24z m52 -72 c-3 -8 -6 -5 -6 6 -1 11 2 17 5 13 3 -3 4 -12 1 -19z"/>
<path d="M9378 1333 c7 -3 16 -2 19 1 4 3 -2 6 -13 5 -11 0 -14 -3 -6 -6z"/>
<path d="M1515 1289 c-3 -3 4 -9 15 -12 12 -3 20 0 20 7 0 13 -28 18 -35 5z"/>
<path d="M10922 1193 c3 -94 -2 -124 -15 -90 -4 7 -8 3 -12 -10 -4 -13 -11
-20 -16 -17 -5 3 -9 -2 -9 -10 0 -20 17 -29 24 -14 3 7 4 1 1 -14 -6 -31 6
-36 29 -12 15 14 16 14 16 0 0 -9 -20 -26 -45 -38 l-44 -22 92 -59 c135 -88
203 -123 287 -148 188 -57 333 -6 439 152 52 77 85 183 78 247 -4 45 -24 109
-31 101 -2 -2 0 -39 5 -82 7 -76 6 -80 -24 -135 -22 -41 -25 -53 -12 -42 18
14 18 13 -1 -19 -27 -48 -89 -99 -162 -133 -106 -51 -236 -41 -374 28 -26 13
-49 28 -53 34 -4 6 12 1 34 -11 41 -21 79 -20 65 2 -5 8 -3 9 5 5 7 -5 10 -14
7 -21 -6 -18 5 -27 19 -15 8 7 19 3 34 -11 12 -12 25 -18 29 -14 4 4 1 10 -5
12 -20 7 -15 21 10 29 19 6 15 9 -29 24 -73 25 -113 47 -169 94 -92 76 -141
145 -151 216 -13 91 -25 76 -22 -27z m-1 -136 c-10 -9 -11 -8 -5 6 3 10 9 15
12 12 3 -3 0 -11 -7 -18z m135 -115 c16 -12 22 -19 13 -15 -33 16 -108 78
-109 90 0 6 15 -3 33 -20 19 -18 47 -42 63 -55z"/>
<path d="M6489 1263 c-13 -16 -12 -17 4 -4 16 13 21 21 13 21 -2 0 -10 -8 -17
-17z"/>
<path d="M1590 1230 c0 -5 5 -10 10 -10 6 0 10 5 10 10 0 6 -4 10 -10 10 -5 0
-10 -4 -10 -10z"/>
<path d="M8482 1200 c0 -14 2 -19 5 -12 2 6 2 18 0 25 -3 6 -5 1 -5 -13z"/>
<path d="M1545 1166 c20 -16 19 -16 -5 -13 -14 2 -19 2 -12 0 16 -6 15 -13 -5
-29 -16 -12 -15 -13 10 -4 36 13 40 13 32 -2 -4 -7 2 -2 14 12 22 28 19 34
-24 44 -29 7 -29 7 -10 -8z"/>
<path d="M616 1153 c-12 -12 -5 -23 14 -23 11 0 20 4 20 9 0 11 -26 22 -34 14z"/>
<path d="M10122 1143 c-5 -10 -8 -52 -8 -93 l1 -75 33 -1 c22 -1 36 5 42 17
16 29 12 43 -7 28 -10 -8 -14 -9 -10 -2 4 6 -2 28 -13 48 -24 42 -25 49 -6 42
10 -4 14 0 11 14 -8 41 -28 51 -43 22z m28 -3 c0 -5 -5 -10 -11 -10 -5 0 -7 5
-4 10 3 6 8 10 11 10 2 0 4 -4 4 -10z"/>
<path d="M8480 1140 c0 -5 5 -10 11 -10 5 0 7 5 4 10 -3 6 -8 10 -11 10 -2 0
-4 -4 -4 -10z"/>
<path d="M1527 1103 c-9 -14 -1 -19 36 -21 15 -1 27 3 27 9 0 7 -10 9 -25 7
-13 -3 -26 0 -28 5 -2 8 -6 7 -10 0z"/>
<path d="M2375 1070 c-3 -5 1 -10 9 -10 9 0 16 5 16 10 0 6 -4 10 -9 10 -6 0
-13 -4 -16 -10z"/>
<path d="M4169 1059 c13 -10 31 -19 40 -19 14 -1 14 -2 -2 -14 -16 -12 -16
-14 -2 -20 9 -3 13 -2 10 4 -3 6 -1 10 4 10 6 0 11 -6 11 -14 0 -16 42 -46 66
-46 11 0 15 6 11 20 -6 24 8 27 17 4 3 -9 12 -14 19 -11 6 2 27 -2 45 -9 18
-7 30 -9 27 -4 -3 6 -1 10 4 10 6 0 11 5 11 10 0 6 -11 10 -23 10 -13 0 -50 9
-82 20 -31 11 -62 17 -68 13 -5 -3 -7 -2 -4 4 8 12 -50 47 -83 50 l-25 2 24
-20z"/>
<path d="M6313 988 c11 -46 21 -89 23 -95 2 -7 16 -13 31 -13 20 0 24 3 14 9
-7 5 -10 14 -7 20 4 6 2 11 -5 11 -8 0 -7 5 2 17 12 15 12 16 -3 10 -10 -3
-18 -2 -18 3 0 6 5 10 11 10 5 0 7 5 4 10 -4 6 -11 8 -16 5 -5 -3 -6 2 -2 11
4 11 2 15 -4 11 -6 -4 -18 10 -27 33 -9 22 -17 40 -19 40 -2 0 6 -37 16 -82z"/>
<path d="M10180 1060 c0 -5 5 -10 11 -10 5 0 7 5 4 10 -3 6 -8 10 -11 10 -2 0
-4 -4 -4 -10z"/>
<path d="M9578 1043 c7 -3 16 -2 19 1 4 3 -2 6 -13 5 -11 0 -14 -3 -6 -6z"/>
<path d="M1543 1018 c-40 -13 -44 -33 -5 -24 15 4 35 8 45 9 9 1 17 7 17 14 0
15 -12 15 -57 1z"/>
<path d="M4904 1015 c-10 -24 11 -41 31 -25 8 7 15 17 15 23 0 6 -3 7 -7 4 -3
-4 -12 -2 -19 4 -11 9 -15 7 -20 -6z"/>
<path d="M4945 970 c-3 -5 -1 -10 4 -10 6 0 11 5 11 10 0 6 -2 10 -4 10 -3 0
-8 -4 -11 -10z"/>
<path d="M4345 960 c-3 -5 -1 -10 4 -10 6 0 11 5 11 10 0 6 -2 10 -4 10 -3 0
-8 -4 -11 -10z"/>
<path d="M4380 950 c0 -5 5 -10 11 -10 5 0 7 5 4 10 -3 6 -8 10 -11 10 -2 0
-4 -4 -4 -10z"/>
<path d="M4550 940 c0 -5 5 -10 10 -10 6 0 10 5 10 10 0 6 -4 10 -10 10 -5 0
-10 -4 -10 -10z"/>
<path d="M11600 925 c0 -9 5 -15 11 -13 6 2 11 8 11 13 0 5 -5 11 -11 13 -6 2
-11 -4 -11 -13z"/>
<path d="M11760 908 c-25 -27 -27 -45 -2 -27 15 11 15 11 4 -1 -7 -8 -17 -15
-22 -15 -5 0 -22 -19 -39 -42 -17 -24 -29 -43 -26 -43 21 0 114 74 124 99 21
50 -3 68 -39 29z"/>
<path d="M11455 893 c-25 -6 -39 -19 -28 -26 5 -3 20 3 33 14 14 10 23 18 20
18 -3 -1 -14 -3 -25 -6z"/>
<path d="M2190 876 c0 -8 86 -53 161 -84 41 -16 108 -37 149 -45 82 -16 194
-12 187 7 -2 6 -11 10 -20 10 -9 -1 -15 2 -12 6 3 5 -30 12 -72 16 -43 4 -91
11 -107 15 -20 6 -32 5 -37 -2 -5 -8 -12 -8 -25 0 -14 8 -15 11 -4 11 33 2
-41 30 -105 40 -37 6 -76 15 -86 20 -19 11 -29 13 -29 6z"/>
<path d="M11230 860 c0 -5 5 -10 11 -10 5 0 7 5 4 10 -3 6 -8 10 -11 10 -2 0
-4 -4 -4 -10z"/>
<path d="M11485 860 c3 -5 8 -10 11 -10 2 0 4 5 4 10 0 6 -5 10 -11 10 -5 0
-7 -4 -4 -10z"/>
<path d="M1540 816 c7 -7 13 -7 20 0 6 6 3 10 -10 10 -13 0 -16 -4 -10 -10z"/>
<path d="M2798 803 c-22 -6 -31 -32 -13 -39 8 -4 31 -3 49 0 26 5 34 11 33 26
-1 20 -26 25 -69 13z"/>
<path d="M1510 652 c0 -148 0 -149 25 -160 18 -8 26 -8 31 0 4 6 3 8 -4 4 -6
-3 -14 -1 -18 6 -10 16 -13 48 -4 48 4 0 11 16 17 35 8 24 8 35 1 35 -7 0 -6
5 1 14 9 11 9 15 -1 18 -10 4 -10 8 2 22 12 16 12 19 -3 27 -26 15 -20 32 8
27 29 -6 43 8 25 25 -10 9 -11 9 -5 -2 6 -11 4 -13 -9 -8 -10 4 -22 7 -27 7
-6 0 -9 6 -8 13 3 26 -2 37 -16 37 -13 0 -15 -23 -15 -148z"/>
<path d="M9976 675 c-3 -10 6 -21 27 -32 18 -9 35 -16 40 -15 4 1 7 -2 7 -6 0
-9 20 -20 88 -49 l33 -14 -17 26 c-15 23 -33 37 -19 15 3 -5 -1 -10 -9 -10 -9
0 -13 6 -10 14 4 10 -2 12 -20 9 -20 -4 -26 -1 -26 12 0 14 3 15 15 5 8 -7 15
-10 15 -7 0 10 -88 67 -103 67 -8 0 -17 -7 -21 -15z m78 -24 c4 -5 -3 -7 -14
-4 -23 6 -26 13 -6 13 8 0 17 -4 20 -9z"/>
<path d="M5476 615 c-16 -9 -37 -13 -47 -10 -20 7 -119 -32 -119 -46 0 -12 17
-11 25 1 3 6 11 10 18 10 6 0 -5 -14 -25 -30 -44 -37 -77 -87 -99 -155 -15
-47 -18 -50 -48 -48 -30 2 -31 0 -31 -39 0 -73 21 -119 80 -178 63 -63 129
-93 244 -111 118 -19 363 8 352 38 -4 8 -6 69 -6 136 0 67 -4 118 -8 112 -4
-5 -19 -21 -34 -34 -27 -23 -27 -23 -55 -4 -44 30 -142 55 -128 33 3 -5 14
-10 24 -10 10 0 30 -9 45 -21 24 -19 26 -26 26 -104 0 -64 3 -84 15 -89 18 -7
20 10 3 17 -7 3 -1 5 14 4 l27 -1 -21 -23 c-15 -16 -25 -20 -34 -13 -13 11
-64 -6 -64 -22 0 -4 -25 -8 -55 -8 -30 0 -55 5 -55 10 0 6 -6 10 -12 10 -7 0
-37 11 -65 25 -29 13 -53 20 -53 14 0 -5 12 -14 26 -20 15 -5 24 -12 21 -15
-12 -12 -107 48 -146 92 -44 50 -52 71 -22 55 25 -14 45 9 35 41 -4 13 -8 32
-10 43 -2 11 -6 31 -9 45 -12 50 -14 100 -6 124 12 29 54 76 70 76 6 0 11 3
11 8 0 4 18 16 40 26 22 10 47 27 56 38 14 14 32 18 90 18 40 0 76 -4 79 -10
3 -5 14 -10 24 -10 34 0 110 -58 131 -100 27 -53 33 -48 15 13 -12 41 -12 47
0 47 10 0 15 10 15 29 0 28 -2 29 -75 40 -108 16 -224 14 -259 -4z m255 -11
c30 -9 49 -19 43 -21 -11 -4 -123 23 -132 32 -11 10 36 4 89 -11z m19 -455 c0
-27 -3 -48 -8 -45 -7 4 -4 96 4 96 2 0 4 -23 4 -51z"/>
<path d="M6815 620 c-3 -5 -3 -10 2 -10 4 0 8 -17 8 -38 -1 -37 13 -72 28 -72
4 0 5 5 1 11 -4 7 -1 10 7 7 8 -3 14 -13 14 -23 0 -10 6 -20 13 -21 7 -1 8 0
2 3 -5 2 -8 8 -5 13 5 8 -50 140 -59 140 -3 0 -8 -4 -11 -10z"/>
<path d="M8205 620 c4 -6 -33 -9 -102 -8 -99 2 -114 0 -176 -26 -72 -30 -85
-42 -69 -58 8 -8 16 -7 29 3 10 8 3 -3 -14 -24 -63 -73 -84 -150 -65 -234 5
-24 6 -43 2 -43 -17 0 -32 32 -32 70 1 36 -2 40 -25 40 -25 0 -26 -1 -20 -58
5 -56 35 -133 57 -147 6 -4 22 1 35 9 31 20 33 11 3 -13 l-22 -18 44 -32 c90
-65 272 -95 420 -69 l74 13 12 40 c6 22 14 55 17 74 l7 34 -22 -29 c-32 -40
-68 -71 -100 -85 -15 -6 -25 -15 -22 -21 3 -5 -5 -6 -20 -2 -16 4 -26 2 -26
-5 0 -6 -17 -11 -42 -10 -43 1 -107 16 -78 18 8 1 -7 12 -35 25 -104 49 -160
140 -160 261 0 91 24 152 80 204 78 72 220 92 314 43 53 -28 91 -20 91 19 0
23 -15 25 -24 3 -3 -8 -11 -12 -17 -8 -6 4 -32 13 -58 20 l-46 13 60 -4 c58
-4 58 -4 15 5 -62 12 -92 12 -85 0z m-245 -44 c0 -2 -7 -7 -16 -10 -8 -3 -12
-2 -9 4 6 10 25 14 25 6z m-126 -395 c3 -5 0 -11 -7 -14 -8 -3 -14 1 -14 9 0
16 13 19 21 5z m36 -60 c0 -5 -7 -12 -16 -15 -14 -5 -15 -4 -4 9 14 17 20 19
20 6z m64 -16 c-4 -8 -10 -12 -15 -9 -11 6 -2 24 11 24 5 0 7 -7 4 -15z"/>
<path d="M2825 587 c32 -28 37 -39 43 -92 7 -56 -2 -381 -11 -434 -2 -17 -11
-25 -25 -26 -12 -1 -25 -5 -29 -8 -3 -4 107 -7 246 -7 229 0 251 1 237 16 -14
14 -14 19 4 54 27 53 25 71 -2 30 -39 -57 -79 -72 -186 -68 -52 2 -93 -1 -95
-6 -2 -6 -20 0 -40 13 l-37 23 0 233 c0 200 2 234 16 246 12 10 20 10 34 1 16
-10 23 -8 44 13 14 14 30 25 36 25 5 0 10 5 10 10 0 7 -50 10 -141 9 l-140 -1
36 -31z"/>
<path d="M4003 588 l37 -35 0 -227 0 -226 25 -12 25 -11 -31 -19 c-16 -10 -34
-16 -39 -13 -4 3 -21 -2 -36 -10 -26 -14 -4 -15 244 -15 255 0 272 1 272 18 0
10 -5 23 -11 29 -8 8 -8 13 0 17 6 4 11 17 11 29 0 19 -3 18 -20 -11 -27 -44
-45 -49 -181 -53 -90 -3 -115 -1 -112 8 6 16 -9 17 -23 3 -8 -8 -18 -4 -35 10
-17 16 -19 20 -6 16 9 -3 24 -3 32 0 17 7 20 44 4 44 -9 0 -10 23 -6 81 4 44
9 84 13 90 3 6 40 8 89 5 75 -4 85 -3 103 17 l21 22 -30 1 c-20 1 -26 -2 -17
-7 9 -6 2 -9 -19 -9 -18 0 -33 5 -33 10 0 6 -16 10 -35 10 -19 0 -35 -4 -35
-9 0 -5 -15 -8 -34 -8 -19 1 -32 5 -30 9 3 5 10 6 15 3 8 -5 8 48 0 172 -1 6
-8 19 -17 28 -16 15 -16 16 2 13 12 -2 19 3 19 12 0 9 -8 14 -20 13 -10 -1
-27 3 -36 8 -12 6 -20 5 -24 -2 -4 -6 2 -13 14 -16 11 -3 18 -9 16 -14 -3 -4
-27 5 -53 21 -26 15 -58 32 -72 36 -21 6 -20 3 13 -28z m96 -215 c-1 -74 -4
-88 -9 -58 -4 22 -8 34 -9 28 0 -7 -6 -13 -13 -13 -6 0 -4 7 5 18 11 12 17 36
17 70 0 29 2 52 5 52 3 0 4 -44 4 -97z m0 -170 c-1 -50 -3 -60 -8 -38 -4 17
-6 37 -5 45 1 8 3 25 3 38 1 12 3 22 6 22 3 0 4 -30 4 -67z"/>
<path d="M4310 612 c0 -8 -22 -12 -71 -12 -44 0 -68 -4 -64 -10 4 -6 53 -10
114 -10 121 0 146 -11 171 -70 20 -49 24 -26 5 31 -13 38 -15 54 -6 57 27 9 7
22 -35 22 -27 0 -43 -4 -39 -10 9 -14 -48 -13 -63 2 -9 9 -12 9 -12 0z"/>
<path d="M6737 524 c-27 -53 -46 -98 -44 -100 2 -3 10 9 17 25 7 17 18 35 26
42 7 6 -31 -83 -86 -197 -55 -115 -100 -214 -100 -220 0 -7 -15 -21 -32 -33
l-33 -21 75 1 c74 1 74 1 40 14 -19 7 -29 14 -22 14 6 1 12 11 12 24 0 12 12
50 27 85 l27 62 121 0 120 0 29 -73 c16 -39 36 -78 44 -84 14 -11 13 -13 -7
-13 -12 0 -29 -7 -37 -15 -14 -13 -2 -15 105 -15 67 0 121 4 121 8 0 4 -15 23
-34 41 -19 19 -44 56 -56 83 -13 30 -25 46 -32 42 -7 -5 -9 -2 -6 7 9 25 -7
52 -35 55 l-26 3 27 -26 c15 -14 19 -20 10 -13 -21 15 -23 7 -6 -23 7 -12 13
-28 14 -35 1 -7 11 -31 22 -52 10 -22 16 -37 11 -34 -4 2 -35 60 -67 127 -32
67 -66 130 -76 140 -10 9 -19 30 -21 45 -2 16 -16 55 -31 88 -15 32 -26 67
-25 78 3 24 -7 66 -17 66 -4 0 -29 -43 -55 -96z m89 -175 c21 -51 43 -89 52
-91 9 -2 -39 -3 -106 -3 -67 0 -117 2 -112 3 6 2 10 7 10 12 0 5 21 53 46 107
53 114 51 115 110 -28z"/>
<path d="M8970 610 c0 -5 10 -12 23 -15 12 -4 35 -19 51 -34 19 -17 30 -22 33
-13 3 6 9 12 14 12 4 0 6 -7 3 -15 -5 -11 -2 -13 12 -8 12 4 15 3 10 -5 -4 -7
-2 -12 3 -12 6 0 11 -7 11 -15 0 -20 -9 -19 -33 3 -11 9 19 -41 66 -113 81
-121 88 -130 116 -128 l29 3 1 -93 c0 -87 -1 -93 -25 -110 -19 -14 -28 -16
-39 -7 -10 8 -15 8 -22 -4 -4 -8 -19 -19 -33 -25 -18 -7 12 -10 115 -10 94 -1
135 3 125 9 -8 5 -23 10 -32 10 -9 0 -20 5 -24 12 -5 8 -2 9 11 4 15 -6 16 -4
4 10 -16 20 -14 205 3 238 55 104 176 264 218 290 46 27 29 31 -28 6 -47 -20
-52 -21 -80 -6 -45 23 -55 20 -26 -9 14 -14 30 -23 36 -19 6 4 8 -1 6 -12 -2
-11 -9 -19 -17 -19 -7 0 -21 -11 -30 -25 -11 -17 -12 -22 -2 -16 9 6 12 5 9
-5 -3 -8 -10 -13 -16 -12 -6 2 -16 -7 -22 -20 -11 -21 -10 -21 4 -3 23 28 20
9 -5 -30 -11 -19 -26 -31 -31 -28 -7 4 -8 2 -4 -5 8 -12 -28 -78 -54 -98 -24
-19 -45 -16 -25 3 9 9 14 23 11 31 -3 8 -6 17 -6 19 0 2 -9 4 -19 4 -11 0 -23
5 -26 10 -4 6 -10 8 -15 5 -12 -7 -131 168 -121 178 4 4 17 9 29 10 15 1 20 7
19 21 -1 13 5 22 18 24 11 2 24 8 30 13 12 12 -76 11 -95 -1 -10 -6 -11 -10
-2 -10 16 0 15 -10 -2 -33 -13 -17 -16 -17 -38 -3 -33 22 -138 57 -138 46z
m522 -102 c-7 -7 -12 -8 -12 -2 0 14 12 26 19 19 2 -3 -1 -11 -7 -17z m-317
-48 c3 -5 1 -10 -4 -10 -6 0 -11 5 -11 10 0 6 2 10 4 10 3 0 8 -4 11 -10z
m115 -174 c0 -2 -7 -7 -16 -10 -8 -3 -12 -2 -9 4 6 10 25 14 25 6z"/>
<path d="M10180 562 c0 -6 9 -12 20 -15 11 -3 20 -3 20 -1 0 2 -9 8 -20 14
-11 6 -20 7 -20 2z"/>
<path d="M5270 541 c0 -6 4 -12 8 -15 5 -3 9 1 9 9 0 8 -4 15 -9 15 -4 0 -8
-4 -8 -9z"/>
<path d="M8350 540 c0 -5 5 -10 11 -10 5 0 7 5 4 10 -3 6 -8 10 -11 10 -2 0
-4 -4 -4 -10z"/>
<path d="M2978 513 c-2 -5 -1 -55 3 -113 l5 -105 2 113 c2 101 -1 127 -10 105z"/>
<path d="M5210 496 c-14 -14 -12 -29 3 -19 6 4 18 8 26 10 28 4 33 21 7 20
-15 -1 -31 -6 -36 -11z"/>
<path d="M1480 453 l-25 -24 30 12 c40 17 49 25 33 31 -7 3 -24 -6 -38 -19z"/>
<path d="M7756 452 c-3 -6 1 -13 10 -16 23 -9 28 -2 10 13 -8 7 -17 8 -20 3z"/>
<path d="M6916 421 c4 -15 2 -21 -4 -17 -18 11 -22 -10 -7 -31 14 -20 55 -38
55 -25 -1 4 -12 27 -26 52 -13 25 -22 34 -18 21z"/>
<path d="M6970 300 c6 -11 13 -20 16 -20 2 0 0 9 -6 20 -6 11 -13 20 -16 20
-2 0 0 -9 6 -20z"/>
<path d="M5701 284 c29 -16 42 -18 34 -4 -3 6 -1 10 4 10 6 0 11 -7 11 -15 0
-8 5 -15 11 -15 5 0 7 5 4 10 -3 6 1 10 9 10 9 0 16 5 16 10 0 6 -23 10 -56 9
-52 -2 -54 -3 -33 -15z"/>
<path d="M9281 184 c0 -11 3 -14 6 -6 3 7 2 16 -1 19 -3 4 -6 -2 -5 -13z"/>
<path d="M5295 160 c-8 -13 5 -13 25 0 13 8 13 10 -2 10 -9 0 -20 -4 -23 -10z"/>
<path d="M6545 140 c-9 -16 -12 -30 -7 -30 4 0 13 14 19 30 6 17 10 30 7 30
-2 0 -10 -13 -19 -30z"/>
<path d="M5325 130 c-3 -5 1 -10 9 -10 9 0 16 5 16 10 0 6 -4 10 -9 10 -6 0
-13 -4 -16 -10z"/>
<path d="M9250 106 c0 -9 30 -14 35 -6 4 6 -3 10 -14 10 -12 0 -21 -2 -21 -4z"/>
<path d="M6520 90 c0 -5 5 -10 10 -10 6 0 10 5 10 10 0 6 -4 10 -10 10 -5 0
-10 -4 -10 -10z"/>
</g>
</svg>
