<?xml version="1.0" standalone="no"?>
<!DOCTYPE svg PUBLIC "-//W3C//DTD SVG 20010904//EN"
 "http://www.w3.org/TR/2001/REC-SVG-20010904/DTD/svg10.dtd">
<svg version="1.0" xmlns="http://www.w3.org/2000/svg"
 width="389.000000pt" height="450.000000pt" viewBox="0 0 389.000000 450.000000"
 preserveAspectRatio="xMidYMid meet">

<g transform="translate(0.000000,450.000000) scale(0.100000,-0.100000)"
fill="#000000" stroke="none">
<path d="M528 4069 c-10 -5 -18 -17 -18 -25 0 -8 -4 -12 -10 -9 -5 3 -10 -1
-10 -9 0 -10 9 -16 26 -16 14 0 23 -4 19 -10 -4 -7 465 -10 1399 -10 l1406 0
0 -200 0 -200 -1399 0 c-923 0 -1402 -3 -1406 -10 -4 -7 117 -10 354 -10 l361
0 0 -91 c0 -77 2 -90 14 -80 12 10 15 4 18 -34 2 -32 0 -44 -9 -41 -14 6 -26
-21 -16 -37 4 -7 9 -3 14 9 7 18 8 18 9 -1 0 -11 7 -28 15 -38 13 -18 14 -17
18 5 4 19 5 18 6 -7 l2 -30 11 25 c5 14 12 36 14 49 3 14 9 32 14 40 8 13 9
12 10 -6 0 -13 6 -23 13 -23 8 0 9 -3 1 -8 -18 -12 -23 -50 -8 -56 8 -3 14
-13 14 -21 0 -10 -5 -13 -12 -9 -10 6 -10 5 0 -8 16 -20 5 -76 -17 -81 -12 -3
-10 -7 10 -16 15 -7 32 -24 38 -38 14 -30 14 -28 -9 -30 -11 -1 -20 4 -20 10
0 7 -4 6 -10 -3 -5 -8 -5 -19 0 -25 8 -9 13 -117 8 -167 -2 -18 -28 -13 -28 6
0 7 -17 13 -42 15 -23 1 -45 4 -48 6 -4 2 -14 -24 -23 -58 -16 -58 -17 -28 -2
38 6 25 3 22 -17 -15 -18 -32 -31 -45 -46 -44 -17 0 -19 -3 -11 -17 6 -12 5
-20 -2 -24 -6 -4 -9 -30 -8 -59 1 -33 -2 -50 -9 -49 -6 2 -9 -7 -7 -18 3 -15
0 -19 -10 -15 -18 6 -40 -29 -25 -39 6 -4 9 -1 8 7 -2 7 4 13 12 13 9 0 14 -7
12 -20 -2 -11 0 -17 4 -12 4 4 8 15 9 25 5 43 25 72 49 72 14 0 28 -4 31 -10
3 -5 15 -10 27 -10 17 0 20 -4 15 -30 -5 -23 -1 -35 15 -50 19 -17 19 -20 5
-20 -10 0 -22 12 -28 28 -18 46 -26 57 -37 57 -6 0 -14 3 -18 8 -13 13 -24 7
-24 -13 0 -11 -4 -20 -10 -20 -5 0 -10 -5 -10 -11 0 -6 8 -9 18 -7 13 4 17 -1
16 -21 0 -14 -4 -34 -8 -43 -4 -9 -5 -22 -1 -28 4 -7 -2 -14 -14 -17 -12 -3
-21 -9 -21 -13 0 -5 -3 -16 -6 -24 -5 -12 -2 -15 10 -10 11 4 16 2 14 -7 -2
-11 10 -14 47 -13 91 1 147 14 152 35 6 23 23 25 23 3 0 -13 3 -14 15 -4 8 7
12 16 9 21 -3 5 0 9 5 9 6 0 11 -4 11 -10 0 -5 4 -10 10 -10 5 0 7 6 4 14 -3
7 3 16 12 20 22 8 33 -2 14 -14 -8 -6 -13 -10 -10 -11 3 0 13 -2 24 -4 11 -2
20 3 23 15 4 16 8 17 24 7 10 -6 19 -19 19 -27 1 -12 2 -12 11 2 7 12 19 16
44 13 33 -5 35 -3 35 25 0 20 5 30 15 30 24 0 17 15 -12 27 -22 8 -4 10 84 9
62 -1 110 1 107 6 -3 4 -1 8 5 8 5 0 8 8 7 18 -4 22 29 45 53 37 17 -5 19 1
23 45 1 27 1 50 -2 50 -9 0 2 139 15 198 6 24 4 32 -6 32 -9 0 -14 12 -15 33
0 18 -4 42 -9 53 -4 10 -9 26 -10 34 -1 8 -12 62 -26 120 l-24 105 -7 -45 c-9
-57 -52 -218 -61 -227 -7 -6 -11 18 -8 50 2 14 -6 17 -52 17 l-54 0 -9 73 -9
72 -3 -72 c-2 -61 -6 -73 -20 -73 -13 0 -22 21 -40 88 -12 48 -39 153 -61 235
l-38 147 476 -2 c262 -1 412 -4 334 -7 -78 -4 -145 -10 -149 -14 -4 -4 8 -6
27 -5 21 2 33 -1 32 -8 -1 -8 12 -9 45 -2 88 16 154 19 149 5 -2 -6 -17 -13
-33 -15 -48 -4 -68 -8 -89 -17 -17 -8 -14 -11 20 -16 22 -4 49 -10 60 -12 11
-3 24 -6 29 -6 5 -1 6 -36 2 -83 -5 -46 -9 -96 -10 -113 -2 -16 -4 -38 -4 -47
-1 -10 -7 -18 -12 -18 -7 0 -7 6 0 19 14 28 13 31 -13 31 -19 0 -24 6 -25 28
-1 15 -6 43 -11 62 -8 30 -9 31 -11 10 -4 -58 -10 -85 -20 -88 -5 -2 -8 -7 -5
-12 3 -4 -2 -21 -10 -36 -17 -33 -21 -119 -5 -109 6 4 7 12 4 18 -5 9 -4 9 5
1 8 -7 11 -33 9 -70 -2 -45 -7 -60 -20 -62 -9 -2 -19 5 -23 17 -10 32 -25 25
-24 -11 0 -29 2 -30 10 -13 7 16 8 13 5 -15 -2 -19 -6 -42 -8 -50 -1 -8 3 -14
10 -12 18 3 15 -54 -5 -78 -19 -21 -43 -27 -43 -9 0 5 -4 7 -10 4 -5 -3 -10
-22 -10 -41 l0 -34 -65 0 c-49 0 -65 -3 -65 -14 0 -13 -20 -26 -41 -26 -17 0
-9 18 10 23 25 6 42 64 28 92 -6 11 -20 60 -32 109 -18 73 -23 84 -28 61 -3
-16 -3 -53 0 -82 3 -29 1 -58 -4 -65 -11 -14 -10 -80 2 -117 6 -18 5 -22 -4
-16 -10 6 -11 3 -2 -12 6 -11 8 -23 5 -26 -3 -3 2 -4 11 -3 9 1 20 8 24 15 4
7 8 -14 9 -46 0 -32 -1 -53 -4 -47 -6 14 -51 6 -57 -10 -3 -7 -1 -19 4 -27 7
-11 9 -11 9 4 0 9 4 17 9 17 10 0 21 -34 21 -66 0 -27 27 -39 34 -16 3 10 7
37 8 60 1 25 5 38 9 30 6 -9 10 -8 15 5 13 36 24 15 24 -48 0 -49 -4 -66 -17
-73 -13 -8 -11 -9 10 -9 23 0 27 4 28 31 l1 31 11 -35 11 -35 5 35 c3 19 12
36 19 38 8 1 11 -2 8 -7 -6 -9 11 -20 28 -17 5 0 13 -10 18 -24 l10 -25 11 25
10 25 6 -30 c4 -20 9 -26 14 -17 5 6 16 12 27 12 10 0 20 7 24 15 4 12 2 13
-13 5 -18 -9 -19 -7 -9 28 14 50 27 65 44 51 20 -16 17 -30 -3 -22 -11 4 -9
-2 7 -15 25 -21 25 -21 5 -36 -11 -9 -15 -16 -10 -15 24 3 35 -2 35 -16 0 -23
27 -18 35 8 6 19 8 19 12 5 2 -10 9 -18 14 -18 5 0 9 -8 9 -17 0 -16 -2 -16
-11 -3 -9 13 -10 13 -6 0 2 -8 9 -16 15 -16 7 -1 27 -3 45 -4 32 -3 31 -3 -8
-9 l-40 -7 46 -4 c40 -4 45 -3 41 13 -2 9 -8 17 -13 17 -14 0 -8 88 7 94 15 6
19 -10 5 -18 -5 -4 -4 -16 2 -30 l12 -25 12 22 c11 22 12 22 24 -8 l13 -30 4
28 c5 39 22 33 22 -8 0 -19 5 -35 10 -35 6 0 10 15 10 34 0 19 5 36 11 38 5 2
11 12 13 23 4 25 22 30 30 8 5 -11 0 -23 -15 -34 -15 -11 -19 -22 -14 -37 4
-15 2 -22 -6 -22 -7 0 -10 -3 -6 -6 11 -11 32 11 32 34 0 12 5 21 10 20 6 -2
9 -11 8 -20 -2 -11 4 -18 15 -18 12 0 13 -3 5 -8 -10 -6 -9 -14 2 -36 11 -21
12 -33 4 -48 -8 -15 -8 -19 0 -14 6 4 11 1 11 -6 1 -10 4 -9 13 2 7 8 25 16
42 17 16 0 31 6 33 12 2 6 26 13 53 17 27 4 49 9 49 12 0 4 -14 19 -32 34 -27
23 -30 29 -19 42 7 9 17 14 21 11 4 -2 16 5 26 16 15 17 26 20 58 15 30 -5 37
-4 33 7 -3 7 4 19 14 25 16 10 19 9 19 -8 0 -11 -5 -20 -11 -20 -7 0 -9 -10
-5 -27 6 -25 5 -26 -7 -11 -20 25 -30 9 -12 -19 16 -25 8 -31 -14 -10 -11 9
-10 7 0 -10 8 -13 23 -23 34 -23 16 0 17 -2 5 -10 -21 -13 -5 -24 18 -11 11 6
22 7 26 4 3 -3 6 -1 6 6 0 7 5 9 12 5 8 -5 9 -2 4 11 -6 18 -6 18 15 -1 l22
-19 -12 23 c-13 25 -12 26 23 12 18 -6 26 -6 26 1 0 6 5 7 11 3 8 -4 7 -9 -2
-15 -10 -6 -6 -11 14 -18 16 -6 36 -11 45 -11 11 0 13 -3 5 -11 -8 -8 -23 -5
-54 10 -23 12 -44 19 -46 17 -3 -2 14 -12 35 -22 27 -11 38 -22 35 -32 -5 -12
-3 -12 16 -1 11 8 21 18 21 24 0 5 8 -3 19 -20 10 -16 17 -33 15 -36 -2 -4
-32 -1 -66 6 -63 13 -83 12 -73 -6 9 -14 -8 -11 -35 7 l-25 16 23 -21 c21 -18
21 -20 5 -30 -10 -6 -13 -11 -8 -11 6 0 24 9 42 20 23 14 42 17 69 13 34 -6
35 -7 19 -20 -11 -7 -14 -13 -9 -13 6 0 14 4 20 9 14 14 46 15 77 3 22 -10 27
-18 27 -47 0 -19 5 -35 10 -35 6 0 9 -15 9 -32 l-1 -33 -8 30 c-8 30 -8 30 -9
-7 0 -21 2 -38 7 -38 4 0 7 -141 8 -313 0 -214 -2 -289 -8 -237 -4 41 -9 152
-11 245 l-2 170 -36 0 c-22 0 -43 -7 -57 -20 l-22 -21 27 -2 c51 -3 62 -5 57
-13 -3 -5 0 -17 5 -28 10 -18 8 -18 -24 -8 -28 8 -39 7 -60 -7 -16 -10 -24
-23 -21 -32 3 -8 -1 -14 -10 -14 -8 0 -13 -4 -9 -9 3 -5 0 -13 -6 -17 -8 -4
-9 -3 -5 4 4 7 3 12 -2 12 -12 0 -34 -49 -27 -61 8 -12 -2 -11 -26 1 -15 8
-25 7 -42 -5 l-22 -17 22 7 c32 9 63 -10 58 -36 -7 -33 -25 -49 -51 -45 -19 4
-25 -1 -30 -20 -3 -13 -10 -21 -15 -18 -5 3 -6 10 -3 16 5 8 1 9 -10 5 -14 -5
-17 -3 -12 8 7 20 -18 20 -38 -1 -9 -8 -13 -21 -9 -27 3 -7 3 -9 -1 -5 -5 4
-18 -3 -30 -16 -11 -12 -15 -15 -8 -6 19 26 14 32 -13 14 -24 -16 -27 -16 -40
2 -8 11 -14 14 -15 7 0 -14 -30 -18 -30 -5 0 4 -9 8 -20 8 -11 0 -20 -4 -20
-9 0 -5 -7 -4 -15 3 -13 11 -19 9 -35 -10 -22 -25 -26 -20 -9 12 10 18 9 20
-6 15 -9 -4 -19 -7 -21 -7 -2 0 -4 -8 -4 -18 0 -10 -5 -23 -11 -29 -7 -7 -9
-20 -5 -30 6 -15 8 -15 16 -3 7 11 10 12 10 2 0 -8 5 -10 12 -6 6 4 3 -5 -8
-19 -10 -15 -22 -27 -26 -27 -5 0 -8 -6 -8 -14 0 -8 -4 -18 -10 -21 -6 -3 -7
1 -4 10 5 11 2 14 -10 9 -9 -3 -13 -11 -10 -16 4 -6 -2 -5 -14 1 -14 7 -23 8
-27 1 -4 -7 -12 -7 -25 0 -25 14 -30 13 -30 -6 0 -8 4 -13 8 -10 5 3 18 -4 30
-14 12 -11 26 -20 32 -20 5 0 10 -4 10 -10 0 -5 -7 -10 -15 -10 -9 0 -20 -10
-25 -22 -5 -13 -9 -17 -9 -10 -1 6 -8 12 -16 12 -14 0 -13 3 1 25 9 14 12 25
6 25 -5 0 -12 -7 -16 -15 -3 -8 -13 -15 -22 -15 -9 0 -14 6 -11 13 3 8 -1 14
-9 14 -20 0 -17 -13 6 -35 21 -19 21 -19 1 -25 -14 -3 -18 -1 -14 9 3 8 -2 17
-11 20 -20 7 -21 30 -2 41 7 4 15 20 18 35 5 26 3 28 -26 27 l-31 0 23 -16
c25 -17 30 -35 7 -27 -9 4 -30 -7 -50 -25 -20 -17 -46 -31 -58 -32 -21 0 -21
-1 -2 -9 19 -8 19 -9 -1 -9 -13 -1 -24 -9 -27 -21 -5 -21 -27 -28 -27 -9 0 5
5 7 10 4 6 -3 10 1 10 9 0 9 -9 16 -21 16 -12 0 -17 -4 -14 -11 6 -8 -79 -6
-145 4 -3 1 -15 -2 -27 -7 -25 -8 -39 -58 -28 -98 14 -50 28 -78 36 -72 5 3 6
-1 4 -9 -3 -7 -1 -24 4 -38 5 -13 10 -18 10 -11 1 11 3 11 14 0 16 -16 28 -68
16 -68 -5 0 -9 11 -9 24 0 14 -5 28 -10 31 -10 6 -7 -20 8 -70 3 -11 6 -27 7
-36 0 -9 6 -23 14 -33 10 -12 17 -14 27 -5 10 8 14 8 14 0 0 -6 17 -11 38 -12
30 0 33 -2 17 -9 -18 -8 -18 -9 5 -9 18 -1 21 -4 11 -10 -8 -6 -9 -10 -2 -12
7 -3 6 -13 -4 -32 -14 -27 -13 -30 10 -53 33 -33 23 -54 -23 -48 -19 2 -41 9
-49 15 -10 9 -13 8 -13 -5 0 -13 -6 -15 -27 -10 -19 4 -24 3 -14 -4 15 -11 -2
-27 -19 -17 -6 4 -6 -4 1 -22 13 -35 2 -25 -19 19 -11 20 -26 34 -39 36 -19 3
-23 10 -23 40 0 20 -2 75 -5 122 -2 47 -2 77 1 68 6 -20 15 -22 32 -8 6 6 10
7 7 4 -2 -4 7 -16 21 -26 33 -26 24 -34 -15 -14 -16 9 -32 16 -36 16 -9 0 -5
-49 5 -55 6 -4 8 -10 6 -14 -3 -4 5 -7 17 -6 12 1 22 8 22 16 0 8 8 17 18 21
13 6 16 12 9 25 -5 10 -8 28 -7 40 1 13 -2 23 -7 23 -5 0 -7 4 -4 9 4 5 -8 49
-25 97 -17 49 -35 118 -40 153 -5 36 -15 72 -23 80 -14 18 -41 90 -51 137 -3
18 -15 40 -26 50 -19 17 -21 17 -47 -3 -17 -12 -34 -40 -45 -74 -10 -30 -23
-55 -28 -57 -5 -2 -9 -9 -9 -16 0 -7 -9 -22 -19 -33 -11 -11 -23 -38 -26 -59
-4 -22 -10 -48 -15 -59 -4 -11 -18 -46 -31 -77 -26 -66 -37 -72 -14 -8 19 53
19 59 1 35 -15 -21 -66 -32 -66 -14 0 6 6 9 14 6 8 -3 22 0 32 7 13 10 14 15
4 21 -9 5 -11 4 -6 -3 8 -13 -42 -11 -64 3 -10 6 -12 4 -7 -7 4 -11 1 -14 -12
-11 -9 2 -17 13 -17 24 0 15 8 19 36 20 l35 1 -40 9 c-21 5 -45 7 -52 5 -7 -3
-13 -1 -13 5 0 6 -8 9 -17 8 -39 -3 -52 1 -47 16 4 8 11 12 16 9 6 -4 8 -1 4
7 -3 8 -9 22 -12 31 -4 11 -14 17 -28 14 -11 -2 -15 -1 -8 1 18 7 14 31 -7 43
-25 13 -44 13 -36 0 8 -12 -17 -13 -30 -1 -6 5 -21 12 -35 16 -24 7 -24 7 -5
-9 19 -14 19 -15 -10 -9 -41 8 -66 8 -90 -2 -18 -8 -18 -7 -7 8 8 9 28 18 45
20 24 3 22 4 -10 4 -23 -1 -40 -4 -37 -9 6 -9 -8 -10 -30 -2 -9 3 -13 10 -10
15 11 18 -7 30 -24 17 -13 -11 -14 -11 -8 0 7 12 4 12 -15 2 -13 -7 -26 -16
-29 -19 -3 -3 -14 -13 -24 -21 -18 -14 -19 -13 -13 3 4 10 2 17 -6 17 -8 0 -6
4 3 10 8 5 10 10 5 10 -6 0 -17 -6 -24 -13 -11 -9 -14 -9 -18 1 -3 6 -10 12
-18 12 -7 0 -19 10 -27 21 -8 13 -24 21 -41 22 -15 0 -27 5 -27 12 0 7 -7 15
-15 19 -8 3 -15 13 -15 21 0 9 -5 13 -10 10 -16 -10 -38 12 -45 45 -3 16 -13
31 -21 34 -8 3 -14 15 -14 26 0 17 -4 20 -20 15 -11 -4 -20 -2 -20 4 0 6 -7
11 -15 11 -8 0 -15 9 -15 20 0 11 -5 20 -11 20 -5 0 -7 -5 -3 -11 4 -7 -7 -1
-25 12 -23 17 -28 25 -19 32 9 6 8 7 -4 3 -31 -9 -133 56 -105 68 7 2 4 5 -5
5 -10 1 -18 6 -18 12 0 5 4 8 9 4 6 -3 25 9 43 27 18 17 25 29 16 25 -10 -3
-20 -2 -24 4 -4 7 -10 6 -19 -1 -9 -8 -12 -4 -10 15 2 14 -1 23 -6 19 -5 -3
-6 -11 -3 -17 5 -8 3 -8 -7 1 -21 19 -46 14 -52 -10 -19 -80 -32 -642 -16
-700 4 -16 5 -28 1 -28 -4 0 -8 -23 -9 -50 -2 -45 0 -50 20 -51 21 0 21 -1 -3
-11 -21 -9 -22 -12 -8 -15 16 -4 16 -6 3 -19 -12 -12 -14 -69 -15 -341 0 -215
-4 -331 -11 -339 -14 -17 -3 -51 22 -64 13 -7 476 -11 1416 -11 l1398 0 17 21
c10 12 20 36 23 53 3 18 4 260 3 539 -3 448 -5 506 -18 498 -12 -8 -15 -41
-15 -195 0 -102 -3 -185 -7 -185 -5 0 -8 89 -8 198 l0 199 23 -1 22 -1 2 743
2 742 -25 0 c-17 0 -28 -7 -31 -20 -3 -11 -9 -20 -14 -20 -5 0 -9 -5 -9 -11 0
-5 4 -7 10 -4 6 4 10 -6 11 -22 0 -15 2 -55 5 -87 4 -63 -7 -89 -33 -79 -12 5
-15 2 -11 -9 4 -9 0 -15 -8 -15 -8 0 -13 6 -10 12 3 8 -14 12 -52 14 -77 2
-89 7 -101 39 -5 16 -10 20 -10 10 -1 -9 -4 -18 -8 -21 -5 -2 -2 -2 5 -1 6 2
12 -1 12 -6 0 -6 -5 -10 -11 -10 -8 0 -7 -6 2 -17 13 -17 13 -17 -13 0 -15 9
-31 17 -35 17 -4 0 -1 -5 7 -10 13 -8 12 -10 -2 -10 -10 0 -19 -8 -20 -17 0
-10 -2 -23 -2 -30 -2 -20 -15 -26 -30 -14 -11 9 -15 9 -19 -1 -3 -7 -6 -3 -6
8 -1 12 -8 27 -16 34 -17 14 -18 20 -5 40 8 13 11 12 24 -5 15 -20 15 -19 16
5 0 41 -15 57 -40 43 -23 -15 -31 -16 -29 -5 4 22 -3 34 -16 29 -8 -4 -17 -2
-20 3 -10 16 -21 12 -46 -15 -31 -32 -39 -31 -40 3 -2 27 -2 27 -7 2 -3 -19
-9 -6 -23 50 -10 41 -19 84 -19 94 0 29 -14 10 -26 -37 l-10 -42 -8 47 c-10
64 -22 68 -31 10 -4 -26 -11 -51 -15 -57 -9 -10 -10 -14 -11 -42 0 -15 -2 -15
-9 2 l-9 20 -1 -20 c-2 -24 -23 46 -41 130 l-12 60 -24 -95 c-14 -52 -31 -109
-39 -127 -8 -17 -17 -52 -20 -77 -7 -46 -7 -46 -45 -46 -38 0 -39 1 -41 38 -3
79 12 223 22 217 15 -9 21 54 23 242 1 123 -2 186 -9 193 -8 8 -13 -3 -19 -42
-6 -48 -8 -51 -17 -28 -12 31 -23 209 -11 194 4 -6 37 -11 72 -12 35 -1 69 -6
75 -11 6 -6 37 -11 69 -12 31 -1 57 -5 57 -8 0 -3 80 -7 178 -7 97 -1 205 -4
240 -7 34 -3 60 -2 57 3 -3 5 -1 11 5 15 6 3 10 -4 10 -17 0 -17 3 -19 9 -9 6
9 11 10 15 2 4 -6 31 -11 60 -11 51 0 52 -1 70 -40 9 -22 15 -43 12 -48 -3 -4
-6 -37 -7 -73 -1 -35 -6 -74 -10 -86 -6 -17 -5 -21 6 -17 13 5 15 -10 4 -31
-3 -5 -4 -16 -3 -22 1 -7 2 -35 3 -63 1 -40 4 -50 19 -50 16 0 17 32 17 524 0
289 4 522 9 519 10 -7 -3 38 -16 52 -13 14 -2817 18 -2840 4z m955 -6 c-7 -2
-21 -2 -30 0 -10 3 -4 5 12 5 17 0 24 -2 18 -5z m315 0 c-16 -2 -40 -2 -55 0
-16 2 -3 4 27 4 30 0 43 -2 28 -4z m1455 0 c-7 -2 -21 -2 -30 0 -10 3 -4 5 12
5 17 0 24 -2 18 -5z m57 -44 c0 -4 -7 -6 -15 -3 -8 4 -15 10 -15 15 0 4 7 6
15 3 8 -4 15 -10 15 -15z m-82 -16 c-10 -2 -26 -2 -35 0 -10 3 -2 5 17 5 19 0
27 -2 18 -5z m129 -300 c-3 -10 -5 -4 -5 12 0 17 2 24 5 18 2 -7 2 -21 0 -30z
m-2067 -160 c0 -16 -5 -35 -10 -43 -7 -11 -10 -4 -10 28 0 23 5 42 10 42 6 0
10 -12 10 -27z m120 25 c-1 -2 -9 -37 -19 -78 l-18 -75 -12 40 c-6 22 -11 46
-11 53 0 26 -20 0 -21 -26 0 -24 -1 -25 -8 -7 -5 11 -11 37 -15 58 l-7 37 56
0 c30 0 55 -1 55 -2z m1937 -135 c-3 -10 -5 -4 -5 12 0 17 2 24 5 18 2 -7 2
-21 0 -30z m2 -52 c-15 -5 -22 6 -14 19 6 9 10 9 16 -1 5 -8 4 -15 -2 -18z
m-2026 -53 c3 -21 2 -38 -4 -38 -5 0 -9 19 -9 42 0 49 5 47 13 -4z m2034 -115
c-3 -10 -5 -4 -5 12 0 17 2 24 5 18 2 -7 2 -21 0 -30z m-930 -60 c-3 -10 -5
-4 -5 12 0 17 2 24 5 18 2 -7 2 -21 0 -30z m40 5 c-3 -8 -6 -5 -6 6 -1 11 2
17 5 13 3 -3 4 -12 1 -19z m-857 -93 c-7 -9 -15 -13 -18 -10 -3 2 1 11 8 20 7
9 15 13 18 10 3 -2 -1 -11 -8 -20z m207 -7 c-3 -7 -5 -2 -5 12 0 14 2 19 5 13
2 -7 2 -19 0 -25z m-189 -53 c1 -14 -3 -25 -8 -25 -6 0 -10 11 -10 25 0 14 4
25 8 25 4 0 9 -11 10 -25z m19 -12 c-3 -10 -5 -4 -5 12 0 17 2 24 5 18 2 -7 2
-21 0 -30z m37 22 c-4 -8 -8 -15 -10 -15 -2 0 -4 7 -4 15 0 8 4 15 10 15 5 0
7 -7 4 -15z m30 -20 c3 -8 1 -15 -4 -15 -6 0 -10 7 -10 15 0 8 2 15 4 15 2 0
6 -7 10 -15z m120 -4 c-7 -8 -54 -9 -49 -1 2 3 15 6 29 6 14 0 23 -2 20 -5z
m482 -16 c-1 -33 -16 -33 -16 0 0 14 4 25 9 25 5 0 8 -11 7 -25z m-841 -5 c3
-5 -1 -10 -10 -10 -9 0 -13 5 -10 10 3 6 8 10 10 10 2 0 7 -4 10 -10z m240
-10 c3 -5 1 -10 -4 -10 -6 0 -11 5 -11 10 0 6 2 10 4 10 3 0 8 -4 11 -10z
m105 -1 c0 -6 -4 -7 -10 -4 -5 3 -10 2 -10 -3 0 -5 -6 -9 -14 -9 -8 0 -12 5
-10 12 6 14 44 17 44 4z m-15 -28 c47 -5 43 -11 -7 -11 -33 0 -45 4 -45 15 0
9 5 12 11 7 6 -4 25 -9 41 -11z m1554 -188 c-2 -93 -7 -176 -12 -187 -6 -13
-6 -16 2 -12 6 4 11 2 11 -3 0 -6 -6 -11 -12 -12 -10 0 -10 -2 0 -6 6 -2 12
-9 12 -14 0 -6 -4 -7 -10 -4 -5 3 -10 -1 -10 -10 0 -9 5 -13 10 -10 12 8 13
-54 1 -74 -6 -10 -10 -10 -16 -1 -4 6 -2 17 4 23 6 6 11 18 10 26 0 10 -4 7
-9 -6 -12 -30 -24 -29 -39 3 -6 15 -15 24 -18 20 -4 -3 -1 -12 5 -18 14 -14
16 -32 2 -23 -6 3 -7 -1 -4 -9 3 -9 1 -16 -5 -16 -6 0 -11 12 -11 26 0 15 -4
23 -11 19 -6 -4 -7 -14 -4 -24 4 -9 9 -27 11 -41 l5 -25 -16 23 c-9 12 -25 22
-36 22 -10 0 -20 3 -20 8 -8 54 -7 61 9 55 14 -5 15 -3 5 8 -15 15 -17 49 -3
49 5 0 7 -7 4 -15 -4 -8 -1 -15 6 -15 6 0 14 9 17 19 3 12 11 17 19 14 8 -3
14 1 14 8 0 7 3 9 6 6 4 -3 16 -1 28 5 17 9 19 8 9 -3 -7 -7 -13 -18 -13 -24
0 -5 9 4 20 20 16 25 20 57 26 198 4 92 9 167 11 167 2 0 3 -75 2 -167z
m-1039 121 c0 -24 -4 -34 -12 -32 -18 6 -22 49 -6 59 18 12 18 13 18 -27z
m262 -21 c-4 -43 -22 -61 -22 -23 0 17 21 74 25 68 1 -2 0 -22 -3 -45z m-745
-47 c-2 -6 -11 -12 -20 -14 -13 -3 -17 4 -17 34 l0 37 20 -23 c11 -13 19 -28
17 -34z m180 12 c-3 -8 -6 -5 -6 6 -1 11 2 17 5 13 3 -3 4 -12 1 -19z m700 0
c-3 -8 -6 -5 -6 6 -1 11 2 17 5 13 3 -3 4 -12 1 -19z m-1184 5 c-7 -2 -13 -12
-13 -20 0 -13 -3 -13 -16 -2 -14 12 -14 14 3 20 10 4 23 8 28 8 6 -1 4 -3 -2
-6z m444 -30 c-3 -10 -5 -4 -5 12 0 17 2 24 5 18 2 -7 2 -21 0 -30z m790 15
c-3 -8 -6 -5 -6 6 -1 11 2 17 5 13 3 -3 4 -12 1 -19z m-552 -17 c2 -11 0 -21
-6 -21 -5 0 -9 12 -9 27 0 30 9 27 15 -6z m-963 -3 c-7 -7 -12 -8 -12 -2 0 14
12 26 19 19 2 -3 -1 -11 -7 -17z m1143 -45 c-4 -27 -8 -53 -8 -60 0 -7 -4 -10
-8 -7 -4 2 -6 14 -3 27 2 12 7 37 10 55 10 50 17 38 9 -15z m-1205 17 c0 -5
-5 -10 -11 -10 -5 0 -7 5 -4 10 3 6 8 10 11 10 2 0 4 -4 4 -10z m50 6 c0 -3
-4 -8 -10 -11 -5 -3 -10 -1 -10 4 0 6 5 11 10 11 6 0 10 -2 10 -4z m1097 -18
c-3 -8 -6 -5 -6 6 -1 11 2 17 5 13 3 -3 4 -12 1 -19z m-970 -10 c-3 -8 -6 -5
-6 6 -1 11 2 17 5 13 3 -3 4 -12 1 -19z m1183 0 c0 -18 -2 -20 -9 -8 -6 8 -7
18 -5 22 9 14 14 9 14 -14z m60 -8 c0 -5 -5 -10 -11 -10 -5 0 -7 5 -4 10 3 6
8 10 11 10 2 0 4 -4 4 -10z m-1433 -32 c-3 -7 -5 -2 -5 12 0 14 2 19 5 13 2
-7 2 -19 0 -25z m663 16 c0 -14 3 -14 15 -4 16 14 18 10 9 -14 -3 -9 -10 -13
-15 -10 -6 3 -8 -6 -5 -20 3 -14 0 -26 -5 -26 -5 0 -9 5 -9 11 0 6 -7 17 -15
25 -8 9 -15 21 -15 27 0 7 4 6 10 -3 8 -12 10 -11 10 8 0 12 5 22 10 22 6 0
10 -7 10 -16z m56 -12 c-18 -16 -18 -16 -6 6 6 13 14 21 18 18 3 -4 -2 -14
-12 -24z m631 -4 c-3 -7 -5 -2 -5 12 0 14 2 19 5 13 2 -7 2 -19 0 -25z m-343
3 c16 -18 16 -19 -23 -18 -22 0 -38 4 -35 8 2 4 13 6 24 4 12 -2 18 0 15 6 -4
5 -10 7 -14 5 -4 -3 -13 -1 -21 5 -11 6 -9 9 11 9 14 0 34 -8 43 -19z m755 -3
c11 -17 10 -18 -8 -9 -25 14 -34 28 -17 28 7 0 19 -9 25 -19z m-649 -8 c-24
-19 -40 -25 -40 -15 0 5 51 34 60 34 3 0 -6 -8 -20 -19z m-220 3 c-8 -4 -21
-12 -29 -20 -16 -17 -24 -12 -15 11 4 9 17 16 33 15 15 0 20 -3 11 -6z m1207
-9 c-3 -3 -12 -4 -19 -1 -8 3 -5 6 6 6 11 1 17 -2 13 -5z m-1777 -19 c0 -6
-16 -12 -35 -13 -24 -2 -35 2 -35 11 0 9 12 14 35 14 19 0 35 -5 35 -12z m160
-5 c0 -5 -9 -10 -21 -10 -11 0 -17 5 -14 10 3 6 13 10 21 10 8 0 14 -4 14 -10z
m1299 -9 c10 -7 11 -13 2 -27 -9 -17 -10 -17 -11 6 0 20 -2 22 -10 10 -8 -13
-10 -12 -10 3 0 19 8 21 29 8z m311 -6 c0 -8 -4 -15 -10 -15 -5 0 -7 7 -4 15
4 8 8 15 10 15 2 0 4 -7 4 -15z m57 0 c0 -6 -10 -11 -23 -11 -13 0 -20 5 -17
12 6 15 40 14 40 -1z m-1657 -15 c11 -8 7 -9 -15 -4 -37 8 -45 14 -19 14 10 0
26 -5 34 -10z m1050 -21 c0 -11 -4 -17 -10 -14 -5 3 -10 13 -10 21 0 8 5 14
10 14 6 0 10 -9 10 -21z m-925 -7 c-3 -3 -11 0 -18 7 -9 10 -8 11 6 5 10 -3
15 -9 12 -12z m800 8 c-3 -5 -14 -10 -23 -9 -14 0 -13 2 3 9 27 11 27 11 20 0z
m-1270 -10 c3 -5 1 -10 -4 -10 -6 0 -11 5 -11 10 0 6 2 10 4 10 3 0 8 -4 11
-10z m430 1 c3 -6 -4 -8 -16 -6 -30 6 -37 15 -11 15 11 0 23 -4 27 -9z m405 1
c0 -7 -34 -31 -42 -32 -5 0 -8 8 -8 18 0 13 8 18 25 18 14 0 25 -2 25 -4z
m470 4 c0 -3 -4 -8 -10 -11 -5 -3 -10 -1 -10 4 0 6 5 11 10 11 6 0 10 -2 10
-4z m165 -6 c4 -6 -9 -10 -32 -9 -38 1 -38 1 -8 9 17 4 31 8 32 9 1 0 5 -3 8
-9z m-615 -20 c-8 -5 -19 -10 -25 -10 -5 0 -3 5 5 10 8 5 20 10 25 10 6 0 3
-5 -5 -10z m615 -30 c-3 -5 -19 -10 -36 -10 -16 0 -29 5 -29 10 0 6 16 10 36
10 21 0 33 -4 29 -10z m-595 -10 c0 -5 -4 -10 -10 -10 -5 0 -10 5 -10 10 0 6
5 10 10 10 6 0 10 -4 10 -10z m345 -10 c3 -5 1 -10 -4 -10 -6 0 -11 5 -11 10
0 6 2 10 4 10 3 0 8 -4 11 -10z m253 -17 c2 -9 -8 -13 -32 -13 -24 0 -36 5
-36 14 0 17 62 16 68 -1z m-318 -39 c0 -15 -6 -24 -15 -24 -15 0 -21 40 -9 53
12 11 24 -3 24 -29z m687 4 c-3 -8 -6 -5 -6 6 -1 11 2 17 5 13 3 -3 4 -12 1
-19z m-337 -3 c0 -8 -4 -15 -10 -15 -5 0 -7 7 -4 15 4 8 8 15 10 15 2 0 4 -7
4 -15z m498 -68 c6 -7 9 -22 7 -32 -2 -11 -4 -22 -4 -25 -1 -3 -10 -6 -21 -7
-21 -2 -37 34 -27 59 3 7 6 1 6 -14 1 -33 17 -45 24 -18 3 11 1 23 -4 26 -12
7 -12 24 0 24 5 0 13 -6 19 -13z m29 -66 c-1 -36 -5 -47 -14 -40 -7 7 -9 20
-3 40 5 16 6 29 4 29 -3 0 -2 5 1 10 12 19 14 10 12 -39z m-87 -452 c0 -33 -9
-59 -20 -59 -11 0 -9 42 3 58 6 8 6 12 -2 12 -6 0 -11 4 -11 8 0 5 7 9 15 9
10 0 15 -10 15 -28z m31 -22 c-10 -9 -11 -8 -5 6 3 10 9 15 12 12 3 -3 0 -11
-7 -18z m-5 -29 c4 -6 3 -8 -4 -4 -5 3 -13 0 -15 -6 -3 -8 -6 -6 -6 5 -1 19
14 23 25 5z m-36 -62 c0 -2 -7 -7 -16 -10 -8 -3 -12 -2 -9 4 6 10 25 14 25 6z
m-489 -173 c12 -16 12 -17 -2 -5 -9 7 -25 10 -35 6 -16 -5 -16 -4 -4 5 20 15
25 14 41 -6z m-6 -69 c2 -16 4 -35 4 -42 1 -7 9 -16 19 -19 9 -4 23 -13 30
-20 14 -14 16 -13 -50 -18 -15 -1 -25 2 -22 7 3 4 10 5 16 2 8 -5 9 -1 5 10
-4 10 -7 21 -7 26 0 5 -9 12 -20 15 -11 4 -17 11 -14 17 5 7 1 9 -9 5 -19 -7
-22 4 -6 20 6 6 18 9 26 6 7 -3 13 -2 12 3 -1 5 -1 13 0 18 2 17 12 -2 16 -30z
m-1437 -85 c-2 -3 3 -13 11 -22 12 -15 11 -17 -3 -17 -13 0 -14 -5 -6 -26 9
-22 7 -25 -7 -22 -14 3 -18 13 -16 48 2 56 1 52 14 48 6 -2 9 -6 7 -9z m1515
-24 c-3 -9 -8 -14 -10 -11 -3 3 -2 9 2 15 9 16 15 13 8 -4z m-604 -64 c18 -12
5 -31 -21 -31 -16 0 -18 -3 -10 -13 9 -10 3 -13 -25 -15 -33 -3 -35 -1 -22 15
41 53 52 60 78 44z m-639 -71 c0 -5 -7 -7 -15 -4 -8 4 -15 8 -15 10 0 2 7 4
15 4 8 0 15 -4 15 -10z m1777 -22 c-3 -8 -6 -5 -6 6 -1 11 2 17 5 13 3 -3 4
-12 1 -19z m-529 -10 c-19 -29 -40 -36 -36 -12 2 16 15 24 47 33 2 1 -3 -9
-11 -21z m-2118 2 c0 -5 -2 -10 -4 -10 -3 0 -8 5 -11 10 -3 6 -1 10 4 10 6 0
11 -4 11 -10z m1450 -4 c0 -3 -4 -8 -10 -11 -5 -3 -10 -1 -10 4 0 6 5 11 10
11 6 0 10 -2 10 -4z m-360 -70 c-12 -30 -28 -60 -35 -66 -7 -6 0 15 16 47 15
32 29 64 29 72 0 8 3 11 6 8 4 -3 -3 -31 -16 -61z m-1213 37 c-4 -3 1 -12 11
-20 15 -13 15 -13 -6 -3 -19 9 -23 30 -5 30 4 0 3 -3 0 -7z m75 -4 c2 -2 1 -3
-1 -2 -2 2 -9 -2 -16 -7 -8 -7 -12 -5 -12 4 0 12 22 16 29 5z m2137 -2 c-2 -1
-12 -9 -22 -16 -15 -12 -17 -12 -11 3 3 9 13 16 22 16 8 0 13 -1 11 -3z
m-1131 -20 c13 5 14 3 5 -7 -14 -16 -47 -5 -37 12 6 9 9 9 11 1 3 -7 12 -9 21
-6z m-1029 -28 c-23 -20 -35 -19 -26 3 2 8 15 14 27 15 l22 2 -23 -20z m1086
-19 c-3 -10 -1 -21 5 -25 7 -4 8 -11 1 -18 -9 -12 -11 -18 -11 -37 0 -5 -5
-10 -11 -10 -8 0 -8 4 -2 13 6 6 9 33 8 59 -1 26 2 45 7 42 5 -3 6 -14 3 -24z
m1632 -52 c-3 -7 -5 -2 -5 12 0 14 2 19 5 13 2 -7 2 -19 0 -25z m-2492 -8 c3
-5 -1 -10 -10 -10 -9 0 -13 5 -10 10 3 6 8 10 10 10 2 0 7 -4 10 -10z m95
-256 l0 -234 -195 0 -194 0 -3 208 c-2 114 -2 219 0 234 l3 28 182 2 c100 2
188 1 195 -1 9 -2 12 -58 12 -237z m2373 189 c-8 -52 -13 -54 -13 -5 0 23 4
42 9 42 6 0 7 -17 4 -37z m24 5 c-3 -7 -5 -2 -5 12 0 14 2 19 5 13 2 -7 2 -19
0 -25z m-1740 -1 c-20 -17 -24 -26 -16 -34 6 -6 8 -17 3 -25 -6 -9 -10 -6 -14
12 -7 30 -1 62 10 55 5 -3 11 -1 15 5 3 5 12 10 18 10 7 -1 0 -11 -16 -23z
m503 -40 c0 -5 -4 -5 -10 -2 -5 3 -10 14 -10 23 0 15 2 15 10 2 5 -8 10 -19
10 -23z m-104 -61 c-16 -78 -19 -82 -36 -61 -11 13 -11 16 1 13 9 -2 14 6 15
22 1 30 24 103 30 97 2 -2 -2 -34 -10 -71z m-771 18 c11 -18 22 -23 33 -19 49
20 48 20 33 2 -7 -9 -10 -17 -7 -17 4 0 2 -8 -3 -18 -7 -13 -6 -23 2 -32 10
-12 9 -12 -5 -1 -10 7 -16 17 -13 21 6 11 -58 61 -65 52 -6 -8 -47 -32 -56
-32 -3 0 8 12 25 26 17 14 29 30 25 35 -13 22 16 6 31 -17z m1895 -4 c8 0 30
-13 48 -28 28 -24 32 -34 32 -74 0 -25 -8 -66 -19 -90 -18 -42 -83 -118 -101
-118 -20 0 -73 56 -96 103 -26 50 -45 157 -28 157 5 0 21 11 35 24 28 26 61
36 94 30 11 -2 27 -4 35 -4z m-1480 -41 c0 -16 -15 -10 -28 11 -7 12 -18 18
-24 14 -7 -4 -8 -3 -4 4 8 13 56 -13 56 -29z m-240 -19 c0 -5 -5 -10 -11 -10
-5 0 -7 5 -4 10 3 6 8 10 11 10 2 0 4 -4 4 -10z m1026 -16 c-11 -7 -22 -12
-25 -9 -2 3 4 12 15 19 10 8 21 12 24 9 3 -2 -4 -11 -14 -19z m-82 -26 l21
-18 -27 0 c-25 0 -28 3 -27 33 0 17 3 25 6 17 3 -8 15 -23 27 -32z m-799 22
c3 -5 2 -10 -4 -10 -5 0 -13 5 -16 10 -3 6 -2 10 4 10 5 0 13 -4 16 -10z m992
-21 c6 -6 17 -8 22 -5 5 4 13 2 16 -4 4 -6 3 -10 -2 -9 -20 3 -25 -2 -14 -15
10 -12 8 -13 -8 -9 -16 4 -21 1 -21 -15 0 -12 -5 -24 -12 -28 -7 -4 -8 -3 -4
4 4 7 2 12 -3 12 -6 0 -11 -5 -11 -11 0 -5 -4 -8 -9 -5 -4 3 -16 0 -25 -7 -14
-10 -15 -18 -7 -40 13 -35 17 -34 17 3 -1 16 3 29 9 27 5 -1 8 -12 7 -24 -5
-33 35 -31 50 2 6 14 17 25 24 25 8 0 16 -11 20 -25 3 -14 10 -25 15 -25 5 0
7 11 3 25 -7 28 7 33 26 10 13 -16 35 -21 25 -6 -3 5 -1 12 5 16 6 4 10 -8 10
-31 l0 -37 -25 23 c-25 23 -25 23 -25 3 0 -21 -9 -23 -43 -8 -9 4 -23 3 -30
-2 -18 -14 -83 -16 -106 -3 -14 7 -21 7 -21 0 0 -5 -7 -10 -15 -10 -8 0 -15
-5 -15 -12 0 -6 -3 -8 -6 -5 -4 4 -3 12 3 19 5 7 14 25 21 41 10 22 9 27 -3
27 -8 0 -15 -7 -15 -16 0 -14 -3 -14 -15 -4 -8 7 -15 22 -15 34 0 12 -6 28
-12 35 -11 11 -10 13 5 8 12 -5 17 -1 17 13 0 11 5 20 11 20 5 0 8 -4 5 -9 -4
-5 3 -7 14 -4 11 3 20 0 20 -6 0 -6 11 -11 25 -11 18 0 25 5 25 18 0 10 2 21
5 23 9 9 49 8 62 -2z m-592 -9 c11 -5 17 -9 13 -11 -5 -1 -11 -2 -15 -3 -5 -1
-28 -12 -52 -24 -69 -34 -75 -29 -55 36 4 14 78 15 109 2z m135 -28 c-5 -2 -8
-8 -5 -13 4 -5 -1 -6 -10 -3 -12 5 -13 10 -4 20 6 7 8 19 4 26 -4 7 1 4 10 -7
9 -12 11 -21 5 -23z m-405 10 c-3 -3 -11 0 -18 7 -9 10 -8 11 6 5 10 -3 15 -9
12 -12z m309 3 c-4 -8 -10 -15 -15 -15 -4 0 -6 7 -3 15 4 8 10 15 15 15 4 0 6
-7 3 -15z m-208 -33 c1 -18 -4 -22 -25 -20 -15 1 -33 -2 -40 -7 -9 -5 -12 -4
-8 3 5 6 0 8 -13 5 -16 -4 -18 -9 -9 -19 6 -7 18 -10 27 -7 14 4 15 3 2 -5 -8
-6 -18 -8 -23 -5 -4 3 -14 -2 -21 -12 -6 -9 -31 -18 -56 -21 -45 -5 -45 -5
-18 11 18 10 29 27 34 51 6 34 8 36 40 29 41 -7 68 4 38 16 -13 6 -4 8 26 6
39 -2 45 -5 46 -25z m214 -10 c0 -12 -13 -23 -36 -31 -19 -7 -37 -11 -39 -9
-3 2 11 10 30 17 19 7 35 17 35 22 0 11 -7 11 -28 0 -25 -12 -92 -21 -92 -11
0 4 21 12 48 18 71 15 82 14 82 -6z m1322 -42 c-6 -43 -12 -37 -12 13 0 25 4
37 8 29 5 -7 7 -26 4 -42z m-1717 19 c-10 -15 -25 -10 -19 6 4 8 10 12 15 9 5
-3 7 -10 4 -15z m1742 -31 c-3 -7 -5 -2 -5 12 0 14 2 19 5 13 2 -7 2 -19 0
-25z m-987 -10 c20 -34 11 -50 -15 -28 -12 10 -18 10 -30 0 -18 -15 -18 -12
-4 29 14 39 24 39 49 -1z m390 23 c0 -5 -10 -11 -22 -13 -29 -4 -26 -21 4 -29
20 -6 21 -7 5 -14 -30 -13 -64 35 -40 58 10 10 53 8 53 -2z m40 -21 c6 0 10 7
10 15 0 8 5 15 10 15 6 0 10 -17 10 -37 -1 -34 -2 -36 -14 -20 -13 17 -42 25
-31 8 3 -5 1 -12 -5 -16 -6 -4 -10 9 -10 32 1 31 3 35 11 21 5 -10 14 -18 19
-18z m78 23 c-10 -2 -18 -9 -18 -14 0 -6 4 -8 9 -4 5 3 12 1 16 -5 3 -5 -4
-11 -17 -11 l-23 -2 23 -4 c30 -6 28 -23 -3 -23 -22 0 -25 4 -25 35 0 32 3 35
28 34 16 -1 20 -3 10 -6z m-1362 -67 c20 8 19 6 -8 -14 -14 -11 -18 -10 -29
10 -11 20 -10 22 3 10 9 -7 24 -9 34 -6z m826 -26 c-9 -16 -18 -27 -21 -25 -7
8 21 65 30 60 4 -3 0 -19 -9 -35z m993 -107 c-1 -51 -3 -95 -6 -97 -2 -2 -17
-6 -34 -7 -16 -2 -32 -7 -35 -10 -3 -4 -11 -1 -18 7 -11 12 -6 14 33 14 l45 0
1 118 c1 64 4 106 8 92 4 -14 6 -66 6 -117z m-1585 112 c-7 -9 -15 -13 -17
-11 -7 7 7 26 19 26 6 0 6 -6 -2 -15z m1610 -37 c0 -32 -4 -48 -9 -40 -4 7 -7
30 -5 50 3 45 3 42 9 42 3 0 5 -24 5 -52z m-390 -23 c8 2 30 5 48 8 17 3 32 1
32 -4 0 -6 8 -6 19 1 17 9 19 7 16 -10 -2 -11 0 -20 6 -20 5 0 9 9 9 21 0 11
4 18 9 14 6 -3 9 -14 8 -24 -2 -24 -82 -27 -98 -2 -9 14 -10 14 -5 -1 3 -10 1
-18 -4 -18 -5 0 -14 8 -20 18 -11 16 -11 16 -6 0 3 -10 1 -18 -4 -18 -6 0 -10
6 -10 13 0 8 -4 7 -10 -3 -6 -9 -10 -10 -10 -3 0 6 -3 20 -6 30 -4 11 -3 14 3
7 4 -6 15 -10 23 -9z m265 6 c-3 -2 0 -12 5 -21 8 -16 5 -18 -25 -18 -19 0
-32 4 -29 9 3 5 10 7 15 4 5 -4 9 -1 9 4 0 16 -16 13 -30 -4 -14 -16 -34 -10
-24 7 4 7 2 8 -5 4 -6 -4 -9 -12 -6 -17 4 -5 1 -9 -4 -9 -11 0 -15 32 -6 41 2
3 27 5 54 5 27 -1 48 -3 46 -5z m-2530 -31 c8 -7 15 -18 15 -24 0 -6 -7 -3
-14 7 -12 15 -14 16 -19 2 -6 -15 -31 -16 -54 -2 -6 4 -14 1 -16 -5 -4 -8 -6
-7 -6 4 -1 9 -6 20 -11 23 -6 4 -10 3 -9 -2 1 -4 1 -15 -1 -23 -1 -11 -4 -9
-9 5 -5 11 -7 23 -5 26 6 11 113 2 129 -11z m64 13 c-3 -20 2 -26 11 -13 8 13
10 12 10 -2 0 -10 -2 -18 -4 -18 -2 0 -12 -3 -22 -7 -11 -4 -15 -3 -10 5 3 6
2 13 -4 17 -5 3 -10 0 -10 -7 0 -9 -3 -9 -10 2 -7 11 -4 17 13 22 12 3 23 6
25 7 1 1 1 -2 1 -6z m68 -9 c8 -21 -13 -42 -28 -27 -13 13 -5 43 11 43 6 0 13
-7 17 -16z m84 -12 c1 -11 4 -8 9 8 7 23 8 23 9 3 1 -12 7 -24 14 -26 6 -3 -5
-5 -25 -4 -39 2 -42 5 -32 31 7 19 24 11 25 -12z m-41 -5 c0 -16 -3 -17 -15
-7 -8 7 -15 16 -15 20 0 3 7 7 15 7 8 0 15 -9 15 -20z m2250 -27 c0 -12 -77
-14 -84 -2 -3 5 15 10 39 10 25 1 45 -2 45 -8z m-1715 -84 c6 -3 -132 -4 -305
-3 -173 0 -279 3 -235 6 86 6 523 3 540 -3z m863 7 c-10 -2 -26 -2 -35 0 -10
3 -2 5 17 5 19 0 27 -2 18 -5z m139 0 c-20 -2 -52 -2 -70 0 -17 2 0 4 38 4 39
0 53 -2 32 -4z m-1694 -10 c-35 -2 -91 -2 -125 0 -35 2 -7 3 62 3 69 0 97 -1
63 -3z m2440 0 c-7 -2 -21 -2 -30 0 -10 3 -4 5 12 5 17 0 24 -2 18 -5z m50 0
c-7 -2 -19 -2 -25 0 -7 3 -2 5 12 5 14 0 19 -2 13 -5z m-2206 -19 c-3 -3 -12
-4 -19 -1 -8 3 -5 6 6 6 11 1 17 -2 13 -5z m106 -1 c-18 -2 -48 -2 -65 0 -18
2 -4 4 32 4 36 0 50 -2 33 -4z m120 0 c-7 -2 -21 -2 -30 0 -10 3 -4 5 12 5 17
0 24 -2 18 -5z m182 1 c-72 -8 -153 -8 -148 -1 2 4 43 6 91 5 48 0 74 -3 57
-4z m62 0 c-3 -3 -12 -4 -19 -1 -8 3 -5 6 6 6 11 1 17 -2 13 -5z m110 0 c-3
-3 -12 -4 -19 -1 -8 3 -5 6 6 6 11 1 17 -2 13 -5z m181 -1 c-32 -2 -84 -2
-115 0 -32 2 -6 3 57 3 63 0 89 -1 58 -3z m315 0 c-34 -2 -93 -2 -130 0 -37 2
-9 3 62 3 72 0 102 -1 68 -3z m170 0 c-7 -2 -19 -2 -25 0 -7 3 -2 5 12 5 14 0
19 -2 13 -5z m570 0 c-29 -2 -78 -2 -110 0 -32 2 -8 3 52 3 61 0 87 -1 58 -3z
m190 0 c-24 -2 -62 -2 -85 0 -24 2 -5 4 42 4 47 0 66 -2 43 -4z m120 0 c-7 -2
-21 -2 -30 0 -10 3 -4 5 12 5 17 0 24 -2 18 -5z m54 1 c-3 -3 -12 -4 -19 -1
-8 3 -5 6 6 6 11 1 17 -2 13 -5z m-2544 -11 c-13 -2 -33 -2 -45 0 -13 2 -3 4
22 4 25 0 35 -2 23 -4z"/>
<path d="M3217 2449 c7 -7 15 -10 18 -7 3 3 -2 9 -12 12 -14 6 -15 5 -6 -5z"/>
<path d="M1815 2800 c3 -5 8 -10 11 -10 2 0 4 5 4 10 0 6 -5 10 -11 10 -5 0
-7 -4 -4 -10z"/>
<path d="M921 650 c-1 -19 4 -26 19 -27 21 -2 28 21 10 32 -6 3 -7 -1 -4 -9 3
-9 3 -16 0 -16 -4 0 -11 10 -16 23 -9 22 -9 22 -9 -3z"/>
<path d="M754 651 c-9 -9 -4 -42 6 -36 5 3 6 13 3 23 -6 16 -6 16 11 0 9 -10
19 -18 21 -18 3 0 2 8 -1 18 -5 14 -2 13 13 -4 21 -23 43 -21 42 4 0 11 -2 12
-6 5 -2 -7 -9 -13 -15 -13 -6 0 -8 6 -5 13 3 8 -7 12 -30 12 -19 0 -37 -2 -39
-4z"/>
<path d="M897 639 c4 -13 8 -18 11 -10 2 7 -1 18 -6 23 -8 8 -9 4 -5 -13z"/>
<path d="M614 638 c-3 -5 -3 -12 0 -15 3 -4 6 0 6 8 0 11 2 11 10 -1 9 -13 10
-13 10 0 0 12 2 12 9 1 7 -10 13 -11 30 -2 16 9 21 9 21 -1 0 -10 2 -10 9 1 6
9 10 10 14 2 3 -7 5 -7 3 1 -3 15 -104 20 -112 6z"/>
<path d="M871 634 c0 -11 3 -14 6 -6 3 7 2 16 -1 19 -3 4 -6 -2 -5 -13z"/>
<path d="M3098 890 c-4 -8 -9 -46 -10 -85 l-3 -70 -9 73 c-11 88 -25 96 -20
10 3 -44 1 -57 -5 -43 -5 11 -10 35 -10 53 -1 21 -5 31 -12 27 -6 -5 -8 -23
-4 -49 8 -48 23 -79 34 -72 4 3 16 -12 27 -32 l19 -37 3 63 c4 87 -2 180 -10
162z"/>
<path d="M3130 782 l1 -117 34 39 c35 40 56 97 37 104 -7 2 -9 15 -6 31 6 29
-6 44 -43 54 -23 5 -23 4 -23 -111z m44 76 c7 -12 6 -21 -3 -32 -20 -24 -26
-20 -29 20 -2 37 12 43 32 12z m16 -69 c0 -18 -32 -79 -41 -79 -8 0 -4 43 7
78 4 15 34 16 34 1z"/>
<path d="M680 540 c0 -5 5 -10 10 -10 6 0 10 5 10 10 0 6 -4 10 -10 10 -5 0
-10 -4 -10 -10z"/>
<path d="M830 540 c0 -5 5 -10 10 -10 6 0 10 5 10 10 0 6 -4 10 -10 10 -5 0
-10 -4 -10 -10z"/>
<path d="M720 3785 c0 -69 3 -125 8 -125 4 0 16 -3 27 -6 18 -4 20 0 21 38 1
135 5 179 14 173 6 -3 10 -28 10 -56 0 -41 3 -49 18 -49 41 0 56 55 27 97 -12
18 -90 53 -117 53 -4 0 -8 -56 -8 -125z"/>
<path d="M1020 3850 c0 -5 44 -11 98 -12 89 -3 97 -5 97 -23 0 -18 -8 -20 -88
-25 -95 -5 -107 -12 -107 -62 0 -21 5 -28 20 -28 16 0 20 7 20 35 l0 34 86 3
c74 3 89 6 100 23 12 18 11 24 -2 43 -14 20 -23 22 -120 22 -60 0 -104 -4
-104 -10z"/>
<path d="M1367 3842 c-11 -12 -17 -36 -17 -70 l0 -52 -49 0 c-28 0 -53 -4 -56
-10 -4 -6 18 -10 59 -10 41 0 68 5 73 13 4 6 10 37 13 67 l5 55 53 3 c71 4 66
22 -6 22 -44 0 -63 -5 -75 -18z"/>
<path d="M1530 3820 c0 -46 5 -49 120 -52 67 -3 75 -5 75 -23 0 -18 -8 -20
-97 -23 -131 -4 -127 -22 5 -22 109 0 127 7 127 46 0 34 -20 43 -110 46 -79 3
-85 4 -88 26 -3 22 -1 22 97 22 61 0 101 4 101 10 0 6 -45 10 -115 10 l-115 0
0 -40z"/>
<path d="M655 3741 c-65 -26 -71 -32 -50 -48 26 -19 105 -18 105 2 0 11 -5 12
-26 5 -31 -12 -34 -12 -34 -1 0 5 14 14 30 20 17 5 30 17 30 25 0 19 -3 19
-55 -3z"/>
<path d="M813 3743 c-14 -3 -23 -12 -23 -23 0 -18 2 -18 35 -4 39 16 55 18 55
6 0 -5 -18 -14 -41 -21 -34 -10 -60 -34 -48 -45 9 -9 139 48 139 60 0 7 -17
18 -37 23 -39 11 -42 11 -80 4z"/>
<path d="M1585 3550 c-3 -5 -2 -10 4 -10 5 0 13 5 16 10 3 6 2 10 -4 10 -5 0
-13 -4 -16 -10z"/>
<path d="M2460 3440 c0 -5 5 -10 10 -10 6 0 10 5 10 10 0 6 -4 10 -10 10 -5 0
-10 -4 -10 -10z"/>
<path d="M3076 3348 c-19 -62 -79 -148 -108 -156 -20 -5 -20 -6 -4 -18 16 -11
14 -14 -19 -30 -20 -9 -39 -23 -42 -30 -3 -7 -21 -23 -41 -35 -29 -18 -33 -24
-19 -27 11 -2 30 11 51 34 27 30 42 38 69 39 27 1 37 -3 40 -17 8 -27 23 -22
46 16 21 33 21 35 4 65 -18 31 -18 31 19 104 46 90 51 107 33 107 -8 0 -20
-22 -29 -52z m-66 -163 c0 -8 -4 -15 -10 -15 -5 0 -7 7 -4 15 4 8 8 15 10 15
2 0 4 -7 4 -15z"/>
<path d="M1067 3075 c-4 -22 -7 -58 -7 -80 0 -36 1 -38 16 -23 13 13 15 26 7
79 l-9 64 -7 -40z"/>
<path d="M997 3004 c-4 -4 -7 -14 -7 -23 0 -11 3 -12 11 -4 6 6 10 16 7 23 -2
6 -7 8 -11 4z"/>
<path d="M1112 2898 c-41 -94 -41 -114 -2 -120 35 -5 43 1 29 22 -5 9 -9 10
-9 3 0 -6 -9 -9 -20 -6 -11 3 -20 10 -20 15 0 5 4 7 9 3 11 -6 51 41 51 61 0
7 7 19 15 28 12 12 13 20 3 40 -6 14 -14 26 -18 26 -3 0 -21 -33 -38 -72z"/>
<path d="M975 2850 c0 -44 3 -80 8 -80 4 0 7 4 7 9 0 5 15 4 35 -2 34 -10 35
-12 35 -59 0 -47 -1 -48 -22 -36 -13 6 -33 11 -45 9 -24 -2 -43 24 -43 58 0
24 -15 28 -24 6 -3 -8 -1 -15 4 -15 6 0 10 -4 10 -10 0 -5 -7 -7 -15 -4 -10 4
-13 13 -10 24 3 10 2 21 -3 24 -6 3 -13 -10 -16 -29 -4 -19 -11 -35 -17 -35
-5 0 -9 -6 -8 -12 4 -34 -2 -69 -11 -63 -6 4 -8 21 -4 40 4 21 1 35 -7 40 -8
5 -10 4 -5 -3 4 -7 2 -12 -4 -12 -6 0 -8 -4 -5 -10 3 -5 2 -10 -2 -10 -5 0 -9
-9 -9 -20 0 -11 4 -20 8 -20 4 0 5 -8 2 -17 -5 -15 -4 -16 5 -3 9 13 15 8 13
-11 -1 -10 73 -4 85 8 14 13 2 26 -34 37 -19 6 -21 10 -10 27 12 20 47 27 47
9 0 -5 -7 -10 -15 -10 -8 0 -15 -5 -15 -12 0 -6 3 -8 7 -5 3 4 12 -1 20 -11
13 -16 14 -16 9 0 -3 12 -1 15 10 11 7 -3 15 -17 15 -32 1 -18 3 -20 6 -8 4
17 6 17 29 2 21 -14 24 -14 24 0 0 18 49 21 52 3 1 -7 4 16 7 52 4 45 2 70 -6
81 -7 8 -13 20 -13 26 0 6 -10 17 -22 26 -22 14 -22 16 -6 34 11 12 14 23 8
33 -5 9 -5 17 1 21 5 3 -5 6 -23 6 -17 0 -34 5 -36 11 -10 31 -17 4 -17 -68z"/>
<path d="M1246 2913 c-6 -14 -5 -15 5 -6 7 7 10 15 7 18 -3 3 -9 -2 -12 -12z"/>
<path d="M1941 2904 c0 -11 3 -14 6 -6 3 7 2 16 -1 19 -3 4 -6 -2 -5 -13z"/>
<path d="M1070 2883 c0 -22 2 -25 10 -13 13 20 13 40 0 40 -5 0 -10 -12 -10
-27z"/>
<path d="M3255 2870 c-3 -5 -1 -10 4 -10 6 0 11 5 11 10 0 6 -2 10 -4 10 -3 0
-8 -4 -11 -10z"/>
<path d="M913 2823 c9 -2 17 -11 17 -19 0 -8 7 -14 15 -14 8 0 15 3 15 6 0 13
-30 34 -47 33 -17 -1 -17 -2 0 -6z"/>
<path d="M869 2753 c-13 -16 -12 -17 4 -4 9 7 17 15 17 17 0 8 -8 3 -21 -13z"/>
<path d="M981 2734 c-1 -20 4 -31 13 -31 17 0 28 45 13 54 -6 3 -7 1 -3 -5 4
-7 3 -12 -3 -12 -5 0 -12 6 -14 13 -3 6 -6 -2 -6 -19z"/>
<path d="M1132 2700 c0 -19 2 -27 5 -17 2 9 2 25 0 35 -3 9 -5 1 -5 -18z"/>
<path d="M1104 2665 c4 -24 16 -30 16 -7 0 12 -4 22 -9 22 -5 0 -8 -7 -7 -15z"/>
<path d="M1968 2653 c7 -3 16 -2 19 1 4 3 -2 6 -13 5 -11 0 -14 -3 -6 -6z"/>
<path d="M557 2643 c-10 -16 7 -30 46 -37 33 -6 37 -5 26 6 -7 8 -21 15 -32
16 -11 0 -23 6 -27 13 -4 6 -10 7 -13 2z"/>
<path d="M1894 2605 c-18 -14 -18 -14 4 -8 12 3 22 9 22 14 0 12 -3 11 -26 -6z"/>
<path d="M880 2591 c0 -5 7 -12 16 -15 14 -5 15 -4 4 9 -14 17 -20 19 -20 6z"/>
<path d="M946 2588 c3 -4 9 -8 15 -8 5 0 9 4 9 8 0 5 -7 9 -15 9 -8 0 -12 -4
-9 -9z"/>
<path d="M1891 2576 c-7 -9 -8 -17 -2 -20 15 -10 40 5 34 20 -7 18 -17 18 -32
0z"/>
<path d="M988 2568 c-4 -10 5 -14 33 -15 22 -1 39 2 39 6 0 4 -6 8 -12 9 -7 0
-23 3 -34 7 -14 4 -23 2 -26 -7z"/>
<path d="M920 2566 c0 -2 7 -7 16 -10 8 -3 12 -2 9 4 -6 10 -25 14 -25 6z"/>
<path d="M1066 2537 c-46 -27 -69 -57 -57 -76 5 -8 14 -10 21 -6 9 6 9 9 0 15
-16 10 9 51 30 48 8 -1 21 1 28 6 11 7 11 4 0 -13 -7 -12 -16 -21 -21 -21 -4
0 -5 -5 -2 -10 4 -6 11 -8 16 -5 5 4 9 1 9 -5 0 -7 -9 -14 -20 -17 -26 -7 -26
-19 0 -26 13 -3 18 -11 14 -20 -3 -9 2 -16 15 -20 23 -6 36 19 25 48 -4 9 -1
20 6 25 8 5 9 9 1 14 -6 4 -11 2 -11 -3 0 -6 -4 -11 -8 -11 -14 0 -12 51 2 56
13 5 11 44 -3 44 -3 -1 -24 -11 -45 -23z m39 -97 c3 -5 1 -10 -4 -10 -6 0 -11
5 -11 10 0 6 2 10 4 10 3 0 8 -4 11 -10z"/>
<path d="M1964 2549 c-3 -6 -1 -16 5 -22 8 -8 11 -5 11 11 0 24 -5 28 -16 11z"/>
<path d="M1680 2535 c0 -8 -5 -15 -11 -15 -12 0 -3 -39 13 -55 7 -7 9 1 6 23
-3 18 -1 35 4 38 11 7 10 24 -2 24 -5 0 -10 -7 -10 -15z"/>
<path d="M1730 2540 c0 -5 5 -10 10 -10 6 0 10 5 10 10 0 6 -4 10 -10 10 -5 0
-10 -4 -10 -10z"/>
<path d="M1760 2535 c0 -6 11 -12 25 -13 16 -1 23 3 19 11 -6 15 -44 17 -44 2z"/>
<path d="M1905 2531 c3 -5 -3 -11 -12 -14 -10 -2 -4 -4 14 -4 22 0 30 4 26 13
-3 8 -12 14 -20 14 -8 0 -12 -4 -8 -9z"/>
<path d="M1721 2488 c17 -34 19 -34 19 -5 0 18 -5 27 -15 27 -13 0 -14 -4 -4
-22z"/>
<path d="M1766 2502 c-3 -6 3 -12 15 -15 12 -3 19 -1 16 6 -5 15 -24 20 -31 9z"/>
<path d="M1810 2495 c0 -5 5 -17 10 -25 5 -8 10 -10 10 -5 0 6 -5 17 -10 25
-5 8 -10 11 -10 5z"/>
<path d="M1920 2475 c0 -14 2 -25 4 -25 2 0 6 11 8 25 3 14 1 25 -3 25 -5 0
-9 -11 -9 -25z"/>
<path d="M1930 2421 c0 -5 5 -13 10 -16 6 -3 10 -2 10 4 0 5 -4 13 -10 16 -5
3 -10 2 -10 -4z"/>
<path d="M1036 2404 c-5 -14 -4 -15 9 -4 17 14 19 20 6 20 -5 0 -12 -7 -15
-16z"/>
<path d="M1544 2411 c4 -6 0 -14 -8 -17 -9 -3 -16 -16 -15 -28 0 -14 2 -16 6
-6 4 8 12 21 20 28 11 11 13 11 13 -1 0 -24 29 -43 43 -28 9 10 8 11 -5 6 -13
-5 -20 0 -27 18 -5 14 -15 28 -22 33 -8 4 -10 3 -5 -5z"/>
<path d="M1600 2415 c0 -5 5 -17 10 -25 5 -8 10 -10 10 -5 0 6 -5 17 -10 25
-5 8 -10 11 -10 5z"/>
<path d="M1625 2410 c3 -5 8 -10 11 -10 2 0 4 5 4 10 0 6 -5 10 -11 10 -5 0
-7 -4 -4 -10z"/>
<path d="M1792 2390 c0 -19 2 -27 5 -17 2 9 2 25 0 35 -3 9 -5 1 -5 -18z"/>
<path d="M1840 2415 c0 -5 5 -17 10 -25 5 -8 10 -10 10 -5 0 6 -5 17 -10 25
-5 8 -10 11 -10 5z"/>
<path d="M2037 2413 c-13 -12 -7 -40 11 -54 14 -11 15 -11 5 1 -7 8 -13 23
-13 33 0 14 5 18 20 14 11 -3 20 -1 20 4 0 10 -33 12 -43 2z"/>
<path d="M2156 2407 c3 -10 9 -15 12 -12 3 3 0 11 -7 18 -10 9 -11 8 -5 -6z"/>
<path d="M2545 2411 c-3 -5 -2 -12 3 -15 5 -3 9 1 9 9 0 17 -3 19 -12 6z"/>
<path d="M1647 2396 c-3 -8 2 -20 11 -27 14 -11 15 -11 5 0 -6 7 -9 20 -6 27
3 8 3 14 0 14 -3 0 -7 -6 -10 -14z"/>
<path d="M1733 2383 c0 -15 2 -22 4 -15 4 10 8 10 21 0 12 -9 11 -5 -3 12 -11
14 -20 26 -21 28 -1 2 -1 -10 -1 -25z"/>
<path d="M2117 2390 c3 -11 9 -22 13 -25 5 -3 6 4 3 15 -3 11 -9 22 -13 25 -5
3 -6 -4 -3 -15z"/>
<path d="M2202 2385 c0 -16 2 -22 5 -12 2 9 2 23 0 30 -3 6 -5 -1 -5 -18z"/>
<path d="M2230 2384 c0 -15 3 -23 8 -18 4 5 10 11 13 14 4 3 1 11 -7 18 -12
11 -14 8 -14 -14z"/>
<path d="M2287 2389 c7 -7 15 -10 18 -7 3 3 -2 9 -12 12 -14 6 -15 5 -6 -5z"/>
<path d="M1950 2380 c0 -5 5 -10 11 -10 5 0 7 5 4 10 -3 6 -8 10 -11 10 -2 0
-4 -4 -4 -10z"/>
<path d="M2066 2377 c3 -10 9 -15 12 -12 3 3 0 11 -7 18 -10 9 -11 8 -5 -6z"/>
<path d="M2096 2373 c-6 -14 -5 -15 5 -6 7 7 10 15 7 18 -3 3 -9 -2 -12 -12z"/>
<path d="M2967 2369 c-9 -5 -21 -8 -26 -4 -5 3 -12 1 -16 -5 -3 -5 1 -10 9
-10 8 0 16 -6 18 -14 5 -22 48 -1 48 24 0 22 -7 24 -33 9z"/>
<path d="M1953 2342 c-11 -15 -13 -15 -22 -2 -7 9 -11 10 -11 3 0 -21 21 -26
38 -9 9 8 14 18 11 20 -3 3 -10 -3 -16 -12z"/>
<path d="M1998 2330 c3 -19 -4 -44 -18 -67 l-22 -38 22 21 c23 22 39 97 23
107 -5 3 -8 -7 -5 -23z"/>
<path d="M2860 2329 c0 -5 5 -7 10 -4 6 3 10 8 10 11 0 2 -4 4 -10 4 -5 0 -10
-5 -10 -11z"/>
<path d="M2740 2310 c0 -5 5 -10 11 -10 5 0 7 5 4 10 -3 6 -8 10 -11 10 -2 0
-4 -4 -4 -10z"/>
<path d="M1008 2298 c19 -10 22 -18 20 -72 l-1 -61 -7 55 -7 55 -1 -53 c-2
-45 18 -122 31 -122 2 0 2 42 0 93 -3 71 -7 95 -20 105 -9 6 -22 12 -27 11 -6
0 -1 -5 12 -11z"/>
<path d="M2623 2293 c-7 -3 -13 -16 -13 -30 0 -22 1 -23 16 -9 17 18 74 22 74
5 0 -5 5 -7 10 -4 6 4 10 -45 10 -139 0 -123 -2 -146 -15 -146 -8 0 -15 -3
-15 -7 0 -5 18 -8 40 -8 35 -1 38 1 25 15 -10 11 -15 52 -17 158 l-3 142 29 0
c17 0 40 -10 54 -22 l25 -23 -13 24 c-10 19 -10 25 1 33 10 7 9 8 -6 4 -43
-12 -157 -7 -183 7 -4 2 -13 2 -19 0z"/>
<path d="M3057 2289 c7 -7 15 -10 18 -7 3 3 -2 9 -12 12 -14 6 -15 5 -6 -5z"/>
<path d="M2930 2268 c-37 -14 -58 -40 -49 -63 4 -11 8 -14 10 -7 3 24 4 27 12
40 10 15 77 15 98 -1 9 -7 18 -19 22 -27 4 -12 6 -12 6 2 1 9 4 24 8 34 4 11
3 15 -4 11 -6 -4 -26 -1 -44 7 -24 10 -42 11 -59 4z"/>
<path d="M819 2220 c4 -42 5 -43 12 -15 6 27 7 25 8 -15 0 -32 -2 -41 -9 -30
-8 12 -10 10 -10 -8 0 -13 4 -20 10 -17 6 4 10 -24 9 -77 -1 -52 -4 -74 -8
-58 -7 24 -8 24 -12 -7 -5 -32 -4 -33 28 -33 21 0 32 4 28 10 -4 6 -9 8 -13 6
-4 -2 -6 34 -4 80 3 71 6 84 20 84 28 0 122 -60 131 -82 5 -15 10 -18 15 -9 5
8 -3 24 -20 43 -16 17 -22 28 -14 24 8 -4 7 -1 -4 8 -10 8 -42 18 -72 22 -40
5 -54 11 -56 23 -2 31 4 76 13 87 6 7 -2 10 -24 10 -32 -1 -32 -1 -28 -46z"/>
<path d="M1236 2255 c-21 -7 -45 -20 -55 -29 -10 -9 -20 -13 -24 -10 -3 3 -13
-8 -22 -25 -19 -37 -13 -85 17 -127 12 -17 17 -21 13 -9 -4 11 -8 26 -8 33 0
6 -4 12 -9 12 -4 0 -8 13 -8 28 0 19 13 42 38 70 33 35 45 42 77 42 30 0 45
-7 76 -39 26 -26 39 -48 40 -67 0 -16 4 -38 8 -49 6 -15 9 -12 14 19 7 45 -14
106 -37 106 -9 0 -23 11 -31 24 -21 31 -44 36 -89 21z m-85 -72 c-12 -20 -14
-14 -5 12 4 9 9 14 11 11 3 -2 0 -13 -6 -23z"/>
<path d="M1726 2260 c7 -8 28 -60 48 -115 21 -55 44 -119 53 -143 l16 -42 22
49 c30 64 41 69 65 29 11 -18 20 -28 20 -22 0 6 -10 23 -21 38 -12 15 -18 30
-14 34 12 12 54 -46 66 -90 l11 -43 33 95 c47 139 48 140 36 140 -6 0 -11 -8
-11 -18 0 -10 -3 -22 -7 -26 -4 -3 -8 -13 -9 -21 -1 -8 -10 -35 -20 -61 -16
-42 -19 -44 -30 -29 -8 10 -11 21 -9 26 3 4 -5 15 -17 24 l-23 16 30 25 30 26
-40 -20 c-38 -19 -41 -19 -62 -3 l-21 18 26 28 c25 25 25 26 4 16 -12 -7 -26
-9 -31 -6 -5 3 -11 -3 -13 -12 -3 -14 -7 -12 -21 12 -20 37 -23 18 -2 -21 8
-16 15 -37 15 -46 0 -10 2 -18 4 -18 2 0 13 -3 23 -6 17 -5 17 -5 0 9 -22 18
-7 31 17 14 14 -11 13 -15 -12 -42 -16 -17 -27 -36 -24 -43 2 -6 -1 -12 -6
-12 -12 0 -74 153 -76 187 0 11 -4 19 -8 17 -4 -2 -9 0 -13 6 -3 5 -1 10 4 10
6 0 11 5 11 11 0 5 -5 7 -10 4 -6 -4 -19 -1 -28 7 -15 11 -15 11 -6 -2z"/>
<path d="M2063 2243 c-2 -27 -1 -27 9 -6 6 12 18 24 27 26 9 3 5 5 -9 6 -21 1
-26 -4 -27 -26z"/>
<path d="M2360 2261 l35 -6 3 -142 c2 -123 0 -143 -13 -143 -8 0 -15 -3 -15
-7 0 -5 12 -8 28 -8 l27 0 -4 78 c-3 67 -1 77 14 77 30 0 54 -20 106 -88 57
-75 106 -113 181 -138 62 -20 166 -15 221 11 49 23 42 30 -9 8 -58 -25 -176
-22 -236 6 -27 12 -48 24 -48 27 0 3 6 2 13 -2 6 -4 -6 12 -28 35 -40 42 -52
51 -39 29 5 -9 2 -9 -9 1 -20 16 -23 36 -4 25 7 -4 9 -3 4 2 -5 5 -14 9 -20 9
-7 0 -23 17 -36 37 -19 30 -32 38 -66 44 -48 7 -54 19 -45 89 6 47 27 55 84
31 37 -15 47 -8 22 17 -10 9 -41 14 -107 14 -55 0 -79 -2 -59 -6z m265 -301
c10 -11 16 -20 13 -20 -3 0 -13 9 -23 20 -10 11 -16 20 -13 20 3 0 13 -9 23
-20z"/>
<path d="M1528 2240 c-14 -10 -27 -17 -30 -15 -8 8 -33 -28 -46 -67 -24 -68 2
-142 61 -178 41 -25 144 -28 153 -5 4 8 13 15 21 15 9 0 11 5 7 12 -4 7 -10
28 -13 47 -5 28 -13 37 -41 48 l-35 13 28 -21 c40 -31 38 -83 -3 -104 -20 -10
-39 -13 -53 -9 -12 5 -28 7 -35 5 -7 -1 -11 2 -10 6 1 4 -9 25 -21 46 -24 39
-39 52 -21 16 7 -11 9 -23 7 -26 -8 -8 -26 32 -32 70 -3 18 0 47 6 63 7 16 11
34 10 41 -1 6 3 14 9 18 6 3 7 0 4 -9 -3 -9 -1 -16 4 -16 6 0 13 9 17 19 7 24
69 36 107 22 15 -6 35 -22 44 -36 20 -31 29 -27 14 7 -25 54 -106 75 -152 38z
m-2 -247 c-7 -7 -26 7 -26 19 0 6 6 6 15 -2 9 -7 13 -15 11 -17z"/>
<path d="M2211 2253 c-1 -7 -7 -13 -14 -13 -8 0 -21 -25 -31 -61 -14 -51 -53
-145 -86 -209 -6 -11 -2 -15 15 -15 16 0 20 3 14 12 -6 6 -6 13 -1 15 5 1 26
54 48 117 21 63 45 117 53 119 10 3 12 -1 8 -18 -6 -25 1 -52 13 -45 4 3 13
-9 19 -27 14 -39 14 -41 -1 -32 -7 4 -3 -3 10 -15 12 -12 22 -24 22 -26 0 -3
-10 -1 -22 4 -27 9 -87 6 -99 -6 -5 -5 15 -8 44 -8 l52 0 15 -45 c12 -35 20
-45 38 -46 12 0 22 3 22 8 0 4 -4 8 -10 8 -5 0 -14 10 -20 23 -11 21 -10 21 4
3 23 -29 20 -15 -20 82 -20 48 -45 110 -55 137 -9 28 -18 44 -18 38z"/>
<path d="M2015 2199 c-4 -6 -5 -12 -2 -15 2 -3 7 2 10 11 7 17 1 20 -8 4z"/>
<path d="M2560 2195 c0 -9 -4 -13 -10 -10 -6 3 -10 -4 -10 -17 0 -13 -5 -29
-12 -36 -9 -9 -9 -12 0 -12 33 0 68 69 42 85 -5 3 -10 -1 -10 -10z"/>
<path d="M2383 2125 c0 -33 2 -45 4 -27 2 18 2 45 0 60 -2 15 -4 0 -4 -33z"/>
<path d="M2860 2170 c0 -10 26 -29 125 -93 36 -23 52 -40 56 -62 l7 -30 1 28
c1 34 -27 87 -46 87 -8 0 -16 7 -19 15 -7 16 -89 65 -110 65 -8 0 -14 -5 -14
-10z m100 -46 c0 -2 -9 0 -20 6 -11 6 -20 13 -20 16 0 2 9 0 20 -6 11 -6 20
-13 20 -16z"/>
<path d="M766 2119 c-42 -33 -74 -109 -46 -109 6 0 10 9 10 20 0 33 28 78 58
94 15 9 22 15 16 16 -6 0 -23 -9 -38 -21z"/>
<path d="M3335 2089 c-5 -16 -10 -18 -21 -8 -11 9 -14 7 -14 -10 0 -12 -6 -21
-15 -21 -9 0 -12 -6 -9 -15 4 -8 12 -15 20 -15 8 0 11 6 7 17 -5 12 -3 14 7 8
9 -6 11 -4 5 5 -6 10 -3 12 11 8 15 -4 19 1 20 24 1 33 -2 36 -11 7z"/>
<path d="M1620 2071 c0 -5 5 -13 10 -16 6 -3 10 -2 10 4 0 5 -4 13 -10 16 -5
3 -10 2 -10 -4z"/>
<path d="M2703 2030 c0 -30 2 -43 4 -27 2 15 2 39 0 55 -2 15 -4 2 -4 -28z"/>
<path d="M1044 2063 c4 -7 2 -13 -3 -13 -7 0 -11 -30 -11 -80 0 -65 -3 -81
-17 -89 -15 -9 -12 -10 17 -11 19 0 31 4 25 8 -10 7 -18 142 -8 142 3 0 19
-10 36 -22 l32 -22 -22 25 c-13 14 -23 30 -23 36 0 6 -8 17 -17 24 -11 10 -14
10 -9 2z"/>
<path d="M1120 2055 c0 -10 17 -35 39 -56 31 -31 46 -39 75 -39 42 0 91 22
100 45 4 11 -2 9 -24 -6 -28 -21 -50 -22 -105 -4 -17 6 -18 5 -5 -5 8 -6 10
-10 4 -8 -7 2 -28 23 -48 46 -24 29 -36 38 -36 27z"/>
<path d="M1347 2063 c-4 -3 -7 -11 -7 -17 0 -6 5 -5 12 2 6 6 9 14 7 17 -3 3
-9 2 -12 -2z"/>
<path d="M550 2049 c0 -5 5 -7 10 -4 6 3 10 8 10 11 0 2 -4 4 -10 4 -5 0 -10
-5 -10 -11z"/>
<path d="M1371 2033 c-10 -26 -10 -27 4 -9 8 11 15 23 15 28 0 15 -7 8 -19
-19z"/>
<path d="M2382 2040 c0 -14 2 -19 5 -12 2 6 2 18 0 25 -3 6 -5 1 -5 -13z"/>
<path d="M2856 2007 c-3 -12 -6 -25 -6 -28 0 -3 21 -16 46 -29 44 -21 48 -22
80 -7 21 10 34 12 36 5 2 -5 10 -2 18 8 14 16 13 17 -2 11 -21 -7 -22 -3 -7
25 8 15 8 23 -1 32 -8 8 -10 7 -5 -6 5 -11 -2 -26 -19 -43 -25 -25 -66 -34
-66 -15 0 5 -7 7 -15 3 -9 -3 -15 -1 -13 3 2 5 -7 22 -18 37 -22 27 -22 27
-28 4z"/>
<path d="M1339 1983 c-13 -16 -12 -17 4 -4 9 7 17 15 17 17 0 8 -8 3 -21 -13z"/>
<path d="M1950 1981 c0 -5 5 -13 10 -16 6 -3 10 -2 10 4 0 5 -4 13 -10 16 -5
3 -10 2 -10 -4z"/>
<path d="M1175 1945 c17 -8 39 -14 50 -14 13 0 8 5 -15 14 -46 18 -74 17 -35
0z"/>
<path d="M1277 1871 c3 -21 0 -48 -6 -60 -11 -20 -10 -21 39 -21 27 0 50 4 50
9 0 6 -16 7 -35 4 l-35 -6 0 51 c0 31 5 52 13 55 6 3 2 6 -10 6 -19 1 -21 -3
-16 -38z"/>
<path d="M1506 1887 c12 -38 11 -69 -3 -83 -13 -12 -7 -14 41 -14 31 0 56 4
56 9 0 6 -16 7 -35 4 l-35 -6 0 51 c0 50 1 51 33 55 21 3 16 4 -16 4 -42 -1
-46 -3 -41 -20z"/>
<path d="M1751 1897 c-6 -8 -14 -28 -17 -44 -8 -39 23 -63 83 -63 40 0 43 2
43 28 0 20 -5 28 -20 29 -16 1 -18 -2 -10 -23 8 -21 7 -24 -13 -24 -52 0 -67
11 -67 48 0 21 7 40 18 48 9 7 12 14 6 14 -6 0 -17 -6 -23 -13z"/>
<path d="M1820 1906 c0 -2 7 -6 15 -10 8 -3 15 -1 15 4 0 6 -7 10 -15 10 -8 0
-15 -2 -15 -4z"/>
<path d="M2030 1883 c-32 -70 -40 -93 -30 -93 5 0 10 9 10 20 0 14 7 20 23 20
16 0 19 3 8 9 -9 6 -11 16 -6 27 5 14 9 15 12 5 4 -10 7 -11 13 -1 9 14 2 40
-9 40 -4 0 -14 -12 -21 -27z"/>
<path d="M2263 1898 c-40 -64 -35 -93 21 -103 44 -9 68 -4 74 15 4 12 2 13 -9
3 -18 -18 -54 -16 -73 3 -23 22 -20 60 6 78 18 13 19 16 6 16 -9 0 -20 -6 -25
-12z"/>
<path d="M2338 1903 c7 -3 16 -2 19 1 4 3 -2 6 -13 5 -11 0 -14 -3 -6 -6z"/>
<path d="M2505 1900 c-3 -6 3 -23 14 -39 24 -33 27 -57 9 -64 -7 -3 -3 -6 10
-6 19 -1 22 3 17 20 -5 13 2 33 19 60 20 30 23 39 11 39 -8 0 -14 -3 -13 -7 1
-5 -4 -19 -11 -32 l-14 -25 -18 23 c-11 13 -16 27 -13 32 3 5 3 9 0 9 -3 0 -8
-5 -11 -10z"/>
<path d="M2066 1854 c-3 -8 -2 -24 4 -33 5 -10 6 -21 3 -25 -3 -3 7 -6 22 -6
l29 0 -26 28 c-14 15 -23 33 -21 40 3 6 3 12 0 12 -3 0 -8 -7 -11 -16z"/>
<path d="M1548 1853 c7 -3 16 -2 19 1 4 3 -2 6 -13 5 -11 0 -14 -3 -6 -6z"/>
<path d="M3011 1761 c-9 -6 -6 -8 13 -8 14 0 23 3 20 8 -7 11 -15 11 -33 0z"/>
<path d="M2652 1722 c2 -7 -8 -18 -21 -25 -14 -6 -26 -18 -29 -24 -6 -20 25
-15 40 5 7 11 19 21 27 23 10 4 10 8 -3 19 -11 9 -16 9 -14 2z"/>
<path d="M2490 1690 c-8 -5 -12 -11 -9 -14 2 -3 11 -1 19 4 8 5 12 11 9 14 -2
3 -11 1 -19 -4z"/>
<path d="M2575 1690 c-3 -6 1 -7 9 -4 18 7 21 14 7 14 -6 0 -13 -4 -16 -10z"/>
<path d="M2705 1690 c-3 -5 -1 -10 4 -10 6 0 11 5 11 10 0 6 -2 10 -4 10 -3 0
-8 -4 -11 -10z"/>
<path d="M2542 1620 c-11 -18 -10 -20 10 -21 13 -1 28 -2 33 -4 6 -1 13 -3 18
-3 4 -1 0 -16 -9 -33 -15 -30 -15 -32 1 -25 11 4 23 0 31 -11 20 -27 19 6 -1
35 -14 20 -14 21 0 16 8 -3 15 -10 15 -15 0 -4 8 -5 18 -2 15 6 15 5 3 -10 -8
-10 -9 -17 -3 -17 17 0 23 17 16 45 -4 18 -11 24 -22 20 -8 -3 -23 -3 -34 1
-19 6 -19 6 -1 20 13 10 14 13 4 14 -8 0 -23 -7 -33 -16 -16 -16 -18 -15 -25
4 -8 22 -8 22 -21 2z"/>
<path d="M2465 1620 c-3 -5 -2 -10 4 -10 5 0 13 5 16 10 3 6 2 10 -4 10 -5 0
-13 -4 -16 -10z"/>
<path d="M1058 1553 c7 -3 16 -2 19 1 4 3 -2 6 -13 5 -11 0 -14 -3 -6 -6z"/>
<path d="M2590 1509 c0 -5 5 -7 10 -4 6 3 10 8 10 11 0 2 -4 4 -10 4 -5 0 -10
-5 -10 -11z"/>
<path d="M1643 1363 c9 -2 23 -2 30 0 6 3 -1 5 -18 5 -16 0 -22 -2 -12 -5z"/>
</g>
</svg>
